<?xml version="1.0" encoding="UTF-8"?>
<svg xmlns="http://www.w3.org/2000/svg" xmlns:xlink="http://www.w3.org/1999/xlink" width="1920" height="1080" viewBox="0 0 1920 1080">
<defs>
<g>
<g id="glyph-0-0">
<path d="M 1.988281 0.0976562 C 1.75 0.0976562 1.53125 0.0625 1.324219 -0.015625 C 1.121094 -0.0898438 0.941406 -0.203125 0.789062 -0.347656 C 0.636719 -0.496094 0.515625 -0.675781 0.429688 -0.886719 C 0.34375 -1.097656 0.296875 -1.339844 0.296875 -1.609375 C 0.296875 -1.996094 0.367188 -2.351562 0.5 -2.679688 C 0.632812 -3.007812 0.816406 -3.296875 1.050781 -3.542969 C 1.277344 -3.789062 1.550781 -3.980469 1.863281 -4.121094 C 2.175781 -4.261719 2.503906 -4.332031 2.847656 -4.332031 C 3.125 -4.332031 3.359375 -4.300781 3.554688 -4.238281 C 3.75 -4.175781 3.90625 -4.105469 4.015625 -4.03125 L 4.183594 -4.234375 L 4.421875 -4.234375 L 4.109375 -2.753906 L 3.863281 -2.753906 C 3.859375 -2.917969 3.847656 -3.082031 3.820312 -3.238281 C 3.796875 -3.398438 3.75 -3.542969 3.671875 -3.667969 C 3.59375 -3.796875 3.488281 -3.902344 3.355469 -3.976562 C 3.21875 -4.050781 3.03125 -4.089844 2.785156 -4.089844 C 2.542969 -4.089844 2.3125 -4.027344 2.09375 -3.902344 C 1.875 -3.773438 1.683594 -3.597656 1.519531 -3.367188 C 1.359375 -3.148438 1.230469 -2.882812 1.136719 -2.570312 C 1.046875 -2.261719 1 -1.929688 1 -1.574219 C 1 -1.132812 1.105469 -0.785156 1.3125 -0.53125 C 1.523438 -0.277344 1.808594 -0.148438 2.179688 -0.148438 C 2.355469 -0.148438 2.503906 -0.175781 2.632812 -0.226562 C 2.761719 -0.277344 2.867188 -0.335938 2.941406 -0.398438 C 2.96875 -0.480469 2.996094 -0.566406 3.019531 -0.65625 C 3.046875 -0.746094 3.074219 -0.859375 3.101562 -0.992188 L 3.160156 -1.246094 C 3.164062 -1.269531 3.167969 -1.292969 3.171875 -1.324219 C 3.175781 -1.355469 3.179688 -1.382812 3.179688 -1.410156 C 3.179688 -1.457031 3.175781 -1.5 3.160156 -1.53125 C 3.148438 -1.5625 3.117188 -1.589844 3.066406 -1.609375 C 3.007812 -1.640625 2.925781 -1.664062 2.816406 -1.679688 C 2.703125 -1.695312 2.621094 -1.703125 2.558594 -1.707031 L 2.605469 -1.910156 L 4.464844 -1.910156 L 4.417969 -1.707031 C 4.367188 -1.699219 4.300781 -1.691406 4.21875 -1.679688 C 4.136719 -1.664062 4.066406 -1.648438 4.011719 -1.625 C 3.9375 -1.59375 3.886719 -1.546875 3.851562 -1.496094 C 3.816406 -1.441406 3.789062 -1.378906 3.769531 -1.304688 L 3.695312 -0.960938 C 3.648438 -0.773438 3.617188 -0.628906 3.597656 -0.535156 C 3.582031 -0.441406 3.5625 -0.355469 3.550781 -0.273438 C 3.417969 -0.21875 3.300781 -0.171875 3.199219 -0.132812 C 3.097656 -0.09375 2.96875 -0.0507812 2.816406 -0.015625 C 2.675781 0.0195312 2.542969 0.046875 2.414062 0.0703125 C 2.285156 0.0898438 2.144531 0.0976562 1.988281 0.0976562 Z "/>
</g>
<g id="glyph-0-1">
<path d="M 3.082031 -1.835938 C 3.082031 -1.601562 3.042969 -1.367188 2.960938 -1.132812 C 2.882812 -0.898438 2.769531 -0.691406 2.617188 -0.515625 C 2.464844 -0.332031 2.277344 -0.1875 2.0625 -0.0742188 C 1.847656 0.0351562 1.597656 0.0898438 1.3125 0.0898438 C 0.984375 0.0898438 0.714844 -0.015625 0.507812 -0.230469 C 0.300781 -0.441406 0.199219 -0.730469 0.199219 -1.089844 C 0.199219 -1.355469 0.242188 -1.601562 0.332031 -1.828125 C 0.417969 -2.058594 0.535156 -2.257812 0.683594 -2.429688 C 0.832031 -2.605469 1.015625 -2.746094 1.238281 -2.851562 C 1.457031 -2.957031 1.695312 -3.011719 1.953125 -3.011719 C 2.304688 -3.011719 2.582031 -2.902344 2.78125 -2.6875 C 2.980469 -2.472656 3.082031 -2.1875 3.082031 -1.835938 Z M 2.472656 -1.953125 C 2.472656 -2.234375 2.421875 -2.445312 2.324219 -2.585938 C 2.222656 -2.726562 2.078125 -2.796875 1.886719 -2.796875 C 1.722656 -2.796875 1.566406 -2.746094 1.421875 -2.644531 C 1.277344 -2.542969 1.148438 -2.378906 1.042969 -2.152344 C 0.960938 -1.976562 0.902344 -1.785156 0.867188 -1.574219 C 0.828125 -1.363281 0.808594 -1.167969 0.808594 -0.988281 C 0.808594 -0.703125 0.859375 -0.488281 0.957031 -0.339844 C 1.054688 -0.195312 1.203125 -0.121094 1.402344 -0.121094 C 1.578125 -0.121094 1.738281 -0.179688 1.875 -0.289062 C 2.011719 -0.402344 2.121094 -0.542969 2.207031 -0.714844 C 2.292969 -0.878906 2.359375 -1.070312 2.40625 -1.289062 C 2.449219 -1.503906 2.472656 -1.722656 2.472656 -1.953125 Z "/>
</g>
<g id="glyph-0-2">
<path d="M 2.101562 -0.410156 L 2.082031 -0.410156 C 2.039062 -0.371094 1.980469 -0.320312 1.914062 -0.261719 C 1.84375 -0.199219 1.769531 -0.148438 1.695312 -0.101562 C 1.597656 -0.0429688 1.511719 0.00390625 1.429688 0.0351562 C 1.351562 0.0664062 1.25 0.0820312 1.132812 0.0820312 C 0.84375 0.0820312 0.617188 -0.0195312 0.453125 -0.226562 C 0.289062 -0.433594 0.207031 -0.71875 0.207031 -1.078125 C 0.207031 -1.328125 0.253906 -1.570312 0.339844 -1.800781 C 0.429688 -2.035156 0.550781 -2.242188 0.703125 -2.421875 C 0.851562 -2.597656 1.03125 -2.738281 1.242188 -2.847656 C 1.453125 -2.957031 1.671875 -3.011719 1.902344 -3.011719 C 2.039062 -3.011719 2.175781 -2.992188 2.308594 -2.957031 C 2.445312 -2.921875 2.554688 -2.878906 2.644531 -2.824219 L 2.875 -3.839844 C 2.886719 -3.894531 2.898438 -3.933594 2.902344 -3.964844 C 2.90625 -3.996094 2.910156 -4.027344 2.910156 -4.0625 C 2.910156 -4.136719 2.894531 -4.191406 2.867188 -4.226562 C 2.835938 -4.265625 2.796875 -4.292969 2.746094 -4.3125 C 2.699219 -4.328125 2.632812 -4.339844 2.546875 -4.347656 C 2.464844 -4.351562 2.390625 -4.359375 2.320312 -4.367188 L 2.363281 -4.550781 L 3.570312 -4.617188 L 3.601562 -4.574219 L 2.773438 -0.996094 C 2.757812 -0.929688 2.742188 -0.855469 2.726562 -0.769531 C 2.707031 -0.6875 2.699219 -0.621094 2.699219 -0.578125 C 2.699219 -0.464844 2.722656 -0.386719 2.773438 -0.347656 C 2.820312 -0.308594 2.898438 -0.285156 3.011719 -0.285156 C 3.050781 -0.285156 3.105469 -0.292969 3.175781 -0.304688 C 3.246094 -0.316406 3.296875 -0.328125 3.335938 -0.34375 L 3.289062 -0.152344 C 3.125 -0.078125 2.984375 -0.0234375 2.875 0.0078125 C 2.765625 0.0351562 2.664062 0.0507812 2.570312 0.0507812 C 2.429688 0.0507812 2.316406 0.0117188 2.230469 -0.0625 C 2.144531 -0.136719 2.101562 -0.25 2.101562 -0.410156 Z M 2.523438 -2.308594 C 2.519531 -2.367188 2.503906 -2.421875 2.480469 -2.476562 C 2.453125 -2.53125 2.421875 -2.582031 2.382812 -2.625 C 2.335938 -2.675781 2.277344 -2.714844 2.203125 -2.75 C 2.128906 -2.78125 2.042969 -2.796875 1.945312 -2.796875 C 1.792969 -2.796875 1.648438 -2.75 1.511719 -2.65625 C 1.375 -2.558594 1.253906 -2.433594 1.152344 -2.273438 C 1.050781 -2.121094 0.972656 -1.9375 0.914062 -1.71875 C 0.855469 -1.503906 0.824219 -1.289062 0.824219 -1.070312 C 0.824219 -0.949219 0.832031 -0.84375 0.84375 -0.75 C 0.859375 -0.65625 0.886719 -0.570312 0.925781 -0.488281 C 0.964844 -0.414062 1.015625 -0.359375 1.085938 -0.316406 C 1.15625 -0.273438 1.25 -0.25 1.363281 -0.25 C 1.472656 -0.25 1.589844 -0.285156 1.71875 -0.347656 C 1.847656 -0.414062 1.992188 -0.527344 2.148438 -0.691406 Z "/>
</g>
<g id="glyph-0-3">
<path d="M 2.761719 -2.390625 C 2.761719 -2.179688 2.695312 -1.996094 2.5625 -1.847656 C 2.429688 -1.695312 2.238281 -1.574219 1.988281 -1.484375 C 1.800781 -1.417969 1.613281 -1.363281 1.425781 -1.320312 C 1.238281 -1.28125 1.027344 -1.246094 0.800781 -1.21875 C 0.800781 -0.902344 0.859375 -0.664062 0.972656 -0.496094 C 1.089844 -0.332031 1.261719 -0.246094 1.484375 -0.246094 C 1.683594 -0.246094 1.859375 -0.296875 2.011719 -0.398438 C 2.164062 -0.496094 2.3125 -0.644531 2.460938 -0.839844 L 2.632812 -0.714844 C 2.472656 -0.472656 2.273438 -0.28125 2.035156 -0.132812 C 1.796875 0.0117188 1.546875 0.0820312 1.292969 0.0820312 C 0.941406 0.0820312 0.671875 -0.015625 0.484375 -0.210938 C 0.296875 -0.410156 0.207031 -0.6875 0.207031 -1.050781 C 0.207031 -1.300781 0.246094 -1.539062 0.324219 -1.769531 C 0.402344 -1.996094 0.515625 -2.203125 0.667969 -2.394531 C 0.816406 -2.578125 0.996094 -2.726562 1.210938 -2.839844 C 1.425781 -2.953125 1.660156 -3.011719 1.917969 -3.011719 C 2.203125 -3.011719 2.417969 -2.953125 2.554688 -2.835938 C 2.695312 -2.71875 2.761719 -2.570312 2.761719 -2.390625 Z M 2.214844 -2.464844 C 2.214844 -2.542969 2.203125 -2.601562 2.179688 -2.648438 C 2.160156 -2.691406 2.132812 -2.726562 2.097656 -2.746094 C 2.0625 -2.769531 2.023438 -2.785156 1.984375 -2.792969 C 1.945312 -2.796875 1.902344 -2.800781 1.863281 -2.800781 C 1.625 -2.800781 1.402344 -2.671875 1.199219 -2.40625 C 1 -2.144531 0.871094 -1.816406 0.816406 -1.425781 C 0.957031 -1.445312 1.113281 -1.472656 1.289062 -1.511719 C 1.464844 -1.546875 1.609375 -1.597656 1.722656 -1.65625 C 1.890625 -1.742188 2.011719 -1.851562 2.09375 -1.984375 C 2.171875 -2.121094 2.214844 -2.28125 2.214844 -2.464844 Z "/>
</g>
<g id="glyph-0-4">
<path d="M 1.078125 0.0859375 C 0.785156 0.0859375 0.539062 0.0351562 0.34375 -0.0703125 C 0.148438 -0.175781 0.0507812 -0.3125 0.0507812 -0.480469 C 0.0507812 -0.558594 0.078125 -0.632812 0.136719 -0.703125 C 0.195312 -0.773438 0.265625 -0.808594 0.347656 -0.808594 C 0.429688 -0.808594 0.492188 -0.789062 0.542969 -0.753906 C 0.589844 -0.714844 0.628906 -0.671875 0.65625 -0.625 C 0.6875 -0.574219 0.710938 -0.511719 0.734375 -0.4375 C 0.757812 -0.367188 0.777344 -0.308594 0.792969 -0.261719 C 0.824219 -0.226562 0.863281 -0.199219 0.917969 -0.167969 C 0.96875 -0.140625 1.046875 -0.125 1.144531 -0.125 C 1.359375 -0.125 1.523438 -0.179688 1.632812 -0.285156 C 1.742188 -0.394531 1.800781 -0.539062 1.800781 -0.722656 C 1.800781 -0.859375 1.746094 -0.964844 1.644531 -1.046875 C 1.539062 -1.125 1.386719 -1.199219 1.179688 -1.269531 C 1.105469 -1.292969 1.019531 -1.328125 0.921875 -1.375 C 0.824219 -1.425781 0.742188 -1.476562 0.683594 -1.535156 C 0.613281 -1.597656 0.554688 -1.671875 0.511719 -1.761719 C 0.46875 -1.847656 0.445312 -1.953125 0.445312 -2.070312 C 0.445312 -2.324219 0.558594 -2.546875 0.785156 -2.730469 C 1.011719 -2.917969 1.292969 -3.011719 1.625 -3.011719 C 1.703125 -3.011719 1.789062 -3.007812 1.875 -3 C 1.964844 -2.992188 2.066406 -2.96875 2.171875 -2.933594 C 2.265625 -2.902344 2.34375 -2.855469 2.410156 -2.792969 C 2.476562 -2.730469 2.507812 -2.648438 2.507812 -2.546875 C 2.507812 -2.464844 2.480469 -2.390625 2.425781 -2.324219 C 2.371094 -2.257812 2.300781 -2.226562 2.210938 -2.226562 C 2.136719 -2.226562 2.078125 -2.242188 2.027344 -2.273438 C 1.980469 -2.304688 1.941406 -2.347656 1.910156 -2.402344 C 1.878906 -2.457031 1.851562 -2.511719 1.832031 -2.574219 C 1.8125 -2.636719 1.789062 -2.695312 1.765625 -2.757812 C 1.726562 -2.773438 1.695312 -2.785156 1.664062 -2.789062 C 1.632812 -2.796875 1.59375 -2.796875 1.546875 -2.796875 C 1.351562 -2.796875 1.203125 -2.746094 1.101562 -2.640625 C 1 -2.535156 0.953125 -2.414062 0.953125 -2.269531 C 0.953125 -2.132812 0.996094 -2.027344 1.085938 -1.957031 C 1.175781 -1.886719 1.328125 -1.8125 1.535156 -1.738281 C 1.804688 -1.640625 2.003906 -1.527344 2.125 -1.402344 C 2.246094 -1.277344 2.308594 -1.121094 2.308594 -0.9375 C 2.308594 -0.632812 2.191406 -0.386719 1.960938 -0.199219 C 1.726562 -0.0078125 1.433594 0.0859375 1.078125 0.0859375 Z "/>
</g>
<g id="glyph-0-5">
<rect x="0" y="0" width="0" height="0" mask="url(#mask-0)"/>
</g>
<g id="glyph-0-6">
<path d="M 1.476562 -2.644531 L 0.953125 -0.179688 C 0.859375 0.261719 0.660156 0.625 0.359375 0.902344 C 0.0585938 1.183594 -0.25 1.324219 -0.566406 1.324219 C -0.742188 1.324219 -0.871094 1.292969 -0.953125 1.226562 C -1.035156 1.160156 -1.078125 1.074219 -1.078125 0.972656 C -1.078125 0.886719 -1.050781 0.8125 -1 0.746094 C -0.949219 0.679688 -0.875 0.648438 -0.777344 0.648438 C -0.714844 0.648438 -0.660156 0.660156 -0.613281 0.6875 C -0.566406 0.714844 -0.523438 0.75 -0.488281 0.792969 C -0.460938 0.828125 -0.429688 0.875 -0.394531 0.929688 C -0.359375 0.988281 -0.332031 1.039062 -0.304688 1.078125 C -0.152344 1.066406 -0.0195312 0.964844 0.0898438 0.769531 C 0.195312 0.574219 0.289062 0.296875 0.371094 -0.0664062 L 0.917969 -2.644531 L 0.335938 -2.644531 L 0.398438 -2.914062 L 0.976562 -2.914062 L 1.015625 -3.117188 C 1.066406 -3.347656 1.140625 -3.554688 1.246094 -3.742188 C 1.347656 -3.925781 1.464844 -4.082031 1.597656 -4.210938 C 1.726562 -4.339844 1.871094 -4.441406 2.035156 -4.511719 C 2.199219 -4.585938 2.359375 -4.621094 2.507812 -4.621094 C 2.683594 -4.621094 2.8125 -4.589844 2.894531 -4.523438 C 2.976562 -4.457031 3.019531 -4.371094 3.019531 -4.269531 C 3.019531 -4.183594 2.996094 -4.109375 2.945312 -4.042969 C 2.898438 -3.976562 2.820312 -3.945312 2.71875 -3.945312 C 2.65625 -3.945312 2.601562 -3.957031 2.558594 -3.984375 C 2.511719 -4.011719 2.46875 -4.046875 2.433594 -4.089844 C 2.394531 -4.140625 2.363281 -4.1875 2.339844 -4.230469 C 2.316406 -4.273438 2.285156 -4.324219 2.25 -4.375 C 2.113281 -4.371094 1.992188 -4.28125 1.886719 -4.105469 C 1.78125 -3.929688 1.683594 -3.640625 1.597656 -3.230469 L 1.535156 -2.914062 L 2.28125 -2.914062 L 2.21875 -2.644531 Z "/>
</g>
<g id="glyph-0-7">
<path d="M 4.1875 -4.234375 L 3.945312 -3.175781 L 3.71875 -3.175781 C 3.710938 -3.386719 3.667969 -3.570312 3.585938 -3.726562 C 3.503906 -3.882812 3.402344 -3.972656 3.28125 -3.988281 C 3.21875 -3.996094 3.148438 -4.003906 3.066406 -4.007812 C 2.984375 -4.011719 2.886719 -4.011719 2.78125 -4.011719 L 2.054688 -4.011719 L 1.660156 -2.292969 L 2.144531 -2.292969 C 2.261719 -2.292969 2.367188 -2.304688 2.460938 -2.328125 C 2.558594 -2.351562 2.648438 -2.40625 2.738281 -2.484375 C 2.785156 -2.527344 2.835938 -2.59375 2.890625 -2.6875 C 2.949219 -2.78125 2.996094 -2.882812 3.027344 -2.988281 L 3.253906 -2.988281 L 2.875 -1.324219 L 2.644531 -1.324219 C 2.648438 -1.347656 2.652344 -1.375 2.652344 -1.410156 C 2.65625 -1.441406 2.660156 -1.476562 2.660156 -1.511719 C 2.660156 -1.566406 2.65625 -1.632812 2.644531 -1.703125 C 2.636719 -1.773438 2.625 -1.828125 2.601562 -1.863281 C 2.546875 -1.945312 2.476562 -2 2.394531 -2.027344 C 2.308594 -2.050781 2.207031 -2.066406 2.089844 -2.066406 L 1.601562 -2.066406 L 1.261719 -0.582031 C 1.257812 -0.566406 1.253906 -0.550781 1.253906 -0.53125 C 1.25 -0.515625 1.25 -0.5 1.25 -0.484375 C 1.25 -0.441406 1.257812 -0.402344 1.277344 -0.367188 C 1.296875 -0.335938 1.324219 -0.304688 1.371094 -0.28125 C 1.402344 -0.265625 1.464844 -0.246094 1.558594 -0.230469 C 1.652344 -0.210938 1.726562 -0.199219 1.789062 -0.195312 L 1.738281 0 L -0.105469 0 L -0.0585938 -0.195312 C 0.00390625 -0.199219 0.0859375 -0.207031 0.183594 -0.214844 C 0.28125 -0.226562 0.347656 -0.238281 0.382812 -0.25 C 0.453125 -0.277344 0.503906 -0.316406 0.539062 -0.367188 C 0.574219 -0.417969 0.601562 -0.480469 0.617188 -0.550781 L 1.332031 -3.632812 C 1.335938 -3.652344 1.339844 -3.671875 1.339844 -3.691406 C 1.34375 -3.710938 1.34375 -3.730469 1.34375 -3.75 C 1.34375 -3.789062 1.339844 -3.824219 1.324219 -3.851562 C 1.308594 -3.882812 1.277344 -3.910156 1.230469 -3.933594 C 1.1875 -3.957031 1.121094 -3.976562 1.035156 -3.996094 C 0.949219 -4.015625 0.878906 -4.03125 0.820312 -4.035156 L 0.867188 -4.234375 Z "/>
</g>
<g id="glyph-0-8">
<path d="M 1.789062 -4.574219 L 0.957031 -0.980469 C 0.941406 -0.90625 0.921875 -0.832031 0.90625 -0.753906 C 0.890625 -0.679688 0.882812 -0.617188 0.882812 -0.570312 C 0.882812 -0.457031 0.910156 -0.378906 0.960938 -0.335938 C 1.011719 -0.296875 1.09375 -0.273438 1.207031 -0.273438 C 1.246094 -0.273438 1.304688 -0.28125 1.382812 -0.289062 C 1.460938 -0.300781 1.519531 -0.3125 1.558594 -0.324219 L 1.515625 -0.132812 C 1.335938 -0.0625 1.199219 -0.0117188 1.101562 0.0195312 C 1.003906 0.046875 0.898438 0.0625 0.777344 0.0625 C 0.617188 0.0625 0.496094 0.0195312 0.414062 -0.0625 C 0.332031 -0.144531 0.289062 -0.246094 0.289062 -0.367188 C 0.289062 -0.414062 0.292969 -0.460938 0.304688 -0.511719 C 0.3125 -0.558594 0.324219 -0.621094 0.339844 -0.699219 L 1.066406 -3.839844 C 1.078125 -3.902344 1.089844 -3.945312 1.09375 -3.96875 C 1.097656 -3.992188 1.101562 -4.023438 1.101562 -4.058594 C 1.101562 -4.128906 1.089844 -4.183594 1.066406 -4.222656 C 1.042969 -4.261719 1.007812 -4.292969 0.964844 -4.3125 C 0.921875 -4.328125 0.871094 -4.339844 0.804688 -4.347656 C 0.742188 -4.351562 0.675781 -4.359375 0.613281 -4.367188 L 0.652344 -4.550781 L 1.761719 -4.617188 Z "/>
</g>
<g id="glyph-0-9">
<path d="M 4.835938 -2.457031 C 4.835938 -2.144531 4.792969 -1.835938 4.703125 -1.53125 C 4.613281 -1.222656 4.492188 -0.953125 4.335938 -0.722656 C 4.164062 -0.464844 3.964844 -0.261719 3.746094 -0.121094 C 3.527344 0.0195312 3.289062 0.0898438 3.035156 0.0898438 C 2.847656 0.0898438 2.675781 0.0390625 2.515625 -0.0664062 C 2.359375 -0.167969 2.253906 -0.3125 2.199219 -0.492188 C 2.128906 -0.421875 2.0625 -0.359375 2 -0.296875 C 1.941406 -0.238281 1.859375 -0.175781 1.761719 -0.113281 C 1.664062 -0.0507812 1.578125 0 1.496094 0.03125 C 1.414062 0.0664062 1.3125 0.0820312 1.1875 0.0820312 C 1.035156 0.0820312 0.910156 0.0585938 0.8125 0.0117188 C 0.714844 -0.0351562 0.636719 -0.09375 0.574219 -0.171875 C 0.519531 -0.242188 0.480469 -0.324219 0.457031 -0.414062 C 0.433594 -0.503906 0.421875 -0.597656 0.421875 -0.699219 C 0.421875 -0.734375 0.425781 -0.785156 0.433594 -0.839844 C 0.441406 -0.898438 0.453125 -0.949219 0.460938 -0.992188 L 0.714844 -1.933594 C 0.738281 -2.023438 0.757812 -2.105469 0.769531 -2.179688 C 0.78125 -2.253906 0.785156 -2.3125 0.785156 -2.359375 C 0.785156 -2.472656 0.765625 -2.546875 0.730469 -2.582031 C 0.691406 -2.617188 0.617188 -2.636719 0.503906 -2.636719 C 0.460938 -2.636719 0.40625 -2.628906 0.335938 -2.613281 C 0.269531 -2.597656 0.21875 -2.585938 0.179688 -2.574219 L 0.222656 -2.765625 C 0.378906 -2.835938 0.515625 -2.886719 0.632812 -2.925781 C 0.753906 -2.960938 0.847656 -2.976562 0.917969 -2.976562 C 1.078125 -2.976562 1.195312 -2.941406 1.269531 -2.867188 C 1.34375 -2.792969 1.382812 -2.683594 1.382812 -2.546875 C 1.382812 -2.511719 1.378906 -2.464844 1.371094 -2.402344 C 1.363281 -2.339844 1.347656 -2.277344 1.332031 -2.214844 L 1.054688 -1.117188 C 1.039062 -1.042969 1.023438 -0.964844 1.011719 -0.890625 C 1 -0.8125 0.992188 -0.753906 0.992188 -0.714844 C 0.992188 -0.566406 1.023438 -0.453125 1.082031 -0.378906 C 1.140625 -0.300781 1.242188 -0.261719 1.382812 -0.261719 C 1.507812 -0.261719 1.640625 -0.296875 1.777344 -0.367188 C 1.914062 -0.433594 2.039062 -0.535156 2.152344 -0.664062 L 2.683594 -2.929688 L 3.203125 -2.964844 L 3.238281 -2.921875 L 2.816406 -1.105469 C 2.800781 -1.042969 2.789062 -0.972656 2.773438 -0.882812 C 2.757812 -0.796875 2.75 -0.742188 2.75 -0.722656 C 2.75 -0.613281 2.769531 -0.527344 2.804688 -0.460938 C 2.839844 -0.398438 2.882812 -0.351562 2.9375 -0.320312 C 2.988281 -0.292969 3.042969 -0.273438 3.097656 -0.265625 C 3.152344 -0.257812 3.207031 -0.257812 3.257812 -0.257812 C 3.394531 -0.257812 3.53125 -0.300781 3.675781 -0.386719 C 3.816406 -0.472656 3.941406 -0.582031 4.046875 -0.71875 C 4.164062 -0.871094 4.253906 -1.042969 4.324219 -1.226562 C 4.390625 -1.414062 4.425781 -1.613281 4.425781 -1.828125 C 4.425781 -1.949219 4.410156 -2.039062 4.375 -2.105469 C 4.34375 -2.167969 4.304688 -2.226562 4.265625 -2.273438 C 4.226562 -2.324219 4.191406 -2.375 4.15625 -2.429688 C 4.125 -2.484375 4.109375 -2.5625 4.109375 -2.660156 C 4.109375 -2.773438 4.144531 -2.859375 4.222656 -2.921875 C 4.296875 -2.980469 4.375 -3.011719 4.460938 -3.011719 C 4.578125 -3.011719 4.667969 -2.964844 4.738281 -2.867188 C 4.804688 -2.773438 4.835938 -2.636719 4.835938 -2.457031 Z "/>
</g>
<g id="glyph-0-10">
<path d="M 2.847656 -2.523438 C 2.847656 -2.46875 2.839844 -2.40625 2.824219 -2.339844 C 2.808594 -2.273438 2.785156 -2.21875 2.753906 -2.175781 C 2.71875 -2.121094 2.679688 -2.078125 2.636719 -2.050781 C 2.59375 -2.023438 2.53125 -2.007812 2.453125 -2.007812 C 2.34375 -2.007812 2.265625 -2.035156 2.210938 -2.089844 C 2.15625 -2.144531 2.128906 -2.203125 2.128906 -2.265625 C 2.128906 -2.328125 2.144531 -2.398438 2.175781 -2.476562 C 2.207031 -2.550781 2.234375 -2.628906 2.265625 -2.703125 C 2.242188 -2.703125 2.203125 -2.695312 2.148438 -2.683594 C 2.09375 -2.671875 2.027344 -2.644531 1.953125 -2.609375 C 1.875 -2.570312 1.785156 -2.511719 1.6875 -2.4375 C 1.589844 -2.363281 1.484375 -2.261719 1.371094 -2.136719 L 0.890625 0 L 0.335938 0 L 0.773438 -1.933594 C 0.78125 -1.980469 0.796875 -2.050781 0.816406 -2.148438 C 0.835938 -2.242188 0.84375 -2.3125 0.84375 -2.359375 C 0.84375 -2.472656 0.824219 -2.546875 0.789062 -2.582031 C 0.75 -2.621094 0.675781 -2.640625 0.5625 -2.640625 C 0.519531 -2.640625 0.460938 -2.632812 0.394531 -2.617188 C 0.328125 -2.601562 0.273438 -2.589844 0.234375 -2.582031 L 0.28125 -2.773438 C 0.4375 -2.84375 0.574219 -2.894531 0.691406 -2.925781 C 0.8125 -2.960938 0.914062 -2.976562 1 -2.976562 C 1.160156 -2.976562 1.273438 -2.933594 1.339844 -2.847656 C 1.40625 -2.761719 1.441406 -2.632812 1.441406 -2.457031 L 1.457031 -2.457031 C 1.695312 -2.664062 1.875 -2.804688 1.996094 -2.886719 C 2.121094 -2.96875 2.246094 -3.011719 2.382812 -3.011719 C 2.445312 -3.011719 2.507812 -3.003906 2.566406 -2.988281 C 2.625 -2.972656 2.675781 -2.945312 2.71875 -2.90625 C 2.761719 -2.863281 2.792969 -2.816406 2.816406 -2.761719 C 2.835938 -2.707031 2.847656 -2.628906 2.847656 -2.523438 Z "/>
</g>
<g id="glyph-0-11">
<path d="M 1.195312 -0.34375 C 1.195312 -0.230469 1.152344 -0.136719 1.074219 -0.0585938 C 0.992188 0.0195312 0.894531 0.0585938 0.785156 0.0585938 C 0.671875 0.0585938 0.578125 0.0195312 0.496094 -0.0585938 C 0.414062 -0.136719 0.375 -0.230469 0.375 -0.34375 C 0.375 -0.453125 0.417969 -0.550781 0.496094 -0.632812 C 0.578125 -0.710938 0.671875 -0.75 0.785156 -0.75 C 0.894531 -0.75 0.992188 -0.710938 1.074219 -0.632812 C 1.152344 -0.550781 1.195312 -0.453125 1.195312 -0.34375 Z "/>
</g>
<g id="glyph-0-12">
<path d="M 4.339844 -4.234375 L 4.074219 -3.085938 L 3.871094 -3.085938 C 3.867188 -3.15625 3.859375 -3.242188 3.839844 -3.351562 C 3.824219 -3.457031 3.800781 -3.554688 3.769531 -3.640625 C 3.734375 -3.730469 3.691406 -3.808594 3.636719 -3.875 C 3.582031 -3.941406 3.515625 -3.980469 3.441406 -3.992188 C 3.378906 -4 3.304688 -4.007812 3.210938 -4.011719 C 3.117188 -4.015625 3.035156 -4.015625 2.953125 -4.015625 L 2.765625 -4.015625 L 1.976562 -0.601562 C 1.972656 -0.585938 1.972656 -0.566406 1.96875 -0.546875 C 1.96875 -0.527344 1.964844 -0.511719 1.964844 -0.492188 C 1.964844 -0.445312 1.976562 -0.40625 1.992188 -0.375 C 2.011719 -0.34375 2.042969 -0.316406 2.09375 -0.292969 C 2.132812 -0.277344 2.207031 -0.257812 2.3125 -0.234375 C 2.414062 -0.210938 2.5 -0.199219 2.566406 -0.195312 L 2.519531 0 L 0.519531 0 L 0.566406 -0.195312 C 0.625 -0.199219 0.714844 -0.207031 0.828125 -0.222656 C 0.941406 -0.234375 1.023438 -0.246094 1.074219 -0.265625 C 1.152344 -0.296875 1.214844 -0.335938 1.253906 -0.386719 C 1.292969 -0.4375 1.320312 -0.5 1.335938 -0.574219 L 2.128906 -4.015625 L 1.972656 -4.015625 C 1.914062 -4.015625 1.835938 -4.015625 1.75 -4.011719 C 1.660156 -4.007812 1.566406 -4.003906 1.472656 -3.992188 C 1.40625 -3.984375 1.332031 -3.945312 1.246094 -3.875 C 1.15625 -3.804688 1.070312 -3.71875 0.980469 -3.625 C 0.898438 -3.53125 0.824219 -3.4375 0.753906 -3.339844 C 0.6875 -3.242188 0.632812 -3.160156 0.597656 -3.085938 L 0.386719 -3.085938 L 0.652344 -4.234375 Z "/>
</g>
<g id="glyph-0-13">
<path d="M 5.199219 -0.335938 L 5.15625 -0.144531 C 4.972656 -0.0703125 4.828125 -0.0195312 4.71875 0.0078125 C 4.609375 0.0351562 4.515625 0.0507812 4.4375 0.0507812 C 4.277344 0.0507812 4.15625 0.0078125 4.078125 -0.0742188 C 4 -0.15625 3.960938 -0.257812 3.960938 -0.378906 C 3.960938 -0.421875 3.964844 -0.472656 3.972656 -0.523438 C 3.980469 -0.578125 3.992188 -0.636719 4.011719 -0.710938 L 4.300781 -1.824219 C 4.324219 -1.910156 4.339844 -1.984375 4.355469 -2.054688 C 4.367188 -2.125 4.375 -2.179688 4.375 -2.222656 C 4.375 -2.355469 4.34375 -2.460938 4.289062 -2.539062 C 4.230469 -2.617188 4.136719 -2.65625 4.011719 -2.65625 C 3.878906 -2.65625 3.75 -2.625 3.621094 -2.5625 C 3.492188 -2.5 3.347656 -2.382812 3.1875 -2.210938 L 2.667969 0 L 2.113281 0 L 2.582031 -1.992188 C 2.589844 -2.035156 2.601562 -2.082031 2.609375 -2.132812 C 2.617188 -2.179688 2.621094 -2.214844 2.621094 -2.242188 C 2.621094 -2.371094 2.589844 -2.472656 2.527344 -2.546875 C 2.460938 -2.621094 2.367188 -2.65625 2.242188 -2.65625 C 2.128906 -2.65625 2.003906 -2.628906 1.863281 -2.570312 C 1.726562 -2.511719 1.570312 -2.386719 1.386719 -2.191406 L 0.882812 0 L 0.328125 0 L 0.773438 -1.933594 C 0.789062 -2.003906 0.804688 -2.078125 0.820312 -2.15625 C 0.835938 -2.238281 0.839844 -2.304688 0.839844 -2.359375 C 0.839844 -2.476562 0.824219 -2.550781 0.785156 -2.589844 C 0.746094 -2.625 0.671875 -2.644531 0.5625 -2.644531 C 0.519531 -2.644531 0.464844 -2.636719 0.394531 -2.621094 C 0.328125 -2.605469 0.273438 -2.589844 0.234375 -2.582031 L 0.28125 -2.773438 C 0.4375 -2.84375 0.574219 -2.894531 0.691406 -2.925781 C 0.8125 -2.960938 0.914062 -2.976562 1 -2.976562 C 1.160156 -2.976562 1.273438 -2.933594 1.339844 -2.847656 C 1.40625 -2.761719 1.441406 -2.644531 1.445312 -2.496094 L 1.460938 -2.496094 C 1.695312 -2.679688 1.890625 -2.8125 2.039062 -2.890625 C 2.191406 -2.96875 2.371094 -3.011719 2.582031 -3.011719 C 2.757812 -3.011719 2.902344 -2.960938 3.011719 -2.855469 C 3.121094 -2.753906 3.183594 -2.625 3.199219 -2.46875 L 3.210938 -2.46875 C 3.421875 -2.648438 3.613281 -2.78125 3.777344 -2.875 C 3.945312 -2.964844 4.136719 -3.011719 4.359375 -3.011719 C 4.550781 -3.011719 4.695312 -2.957031 4.800781 -2.84375 C 4.902344 -2.734375 4.953125 -2.589844 4.953125 -2.410156 C 4.953125 -2.375 4.945312 -2.3125 4.9375 -2.21875 C 4.925781 -2.128906 4.90625 -2.039062 4.882812 -1.949219 L 4.632812 -0.992188 C 4.617188 -0.925781 4.597656 -0.855469 4.582031 -0.769531 C 4.566406 -0.6875 4.558594 -0.625 4.558594 -0.578125 C 4.558594 -0.464844 4.582031 -0.386719 4.628906 -0.347656 C 4.675781 -0.308594 4.757812 -0.285156 4.871094 -0.285156 C 4.910156 -0.285156 4.964844 -0.292969 5.035156 -0.300781 C 5.109375 -0.3125 5.164062 -0.324219 5.199219 -0.335938 Z "/>
</g>
<g id="glyph-0-14">
<path d="M 3.324219 -1.871094 C 3.324219 -1.605469 3.277344 -1.351562 3.183594 -1.113281 C 3.089844 -0.875 2.964844 -0.667969 2.808594 -0.492188 C 2.636719 -0.300781 2.449219 -0.15625 2.25 -0.0625 C 2.046875 0.03125 1.839844 0.078125 1.625 0.078125 C 1.453125 0.078125 1.316406 0.0585938 1.207031 0.015625 C 1.097656 -0.0273438 1 -0.078125 0.914062 -0.140625 L 0.738281 0.640625 C 0.726562 0.691406 0.71875 0.738281 0.710938 0.78125 C 0.703125 0.824219 0.699219 0.859375 0.699219 0.886719 C 0.699219 0.941406 0.71875 0.984375 0.757812 1.015625 C 0.796875 1.046875 0.84375 1.070312 0.890625 1.082031 C 0.941406 1.097656 0.996094 1.109375 1.058594 1.117188 C 1.121094 1.125 1.175781 1.132812 1.226562 1.136719 L 1.183594 1.324219 L -0.460938 1.324219 L -0.417969 1.136719 C -0.355469 1.132812 -0.292969 1.128906 -0.238281 1.121094 C -0.183594 1.117188 -0.128906 1.105469 -0.0820312 1.09375 C -0.0195312 1.074219 0.03125 1.039062 0.0664062 0.992188 C 0.105469 0.941406 0.128906 0.882812 0.144531 0.8125 L 0.769531 -1.933594 C 0.785156 -2.007812 0.800781 -2.085938 0.816406 -2.160156 C 0.828125 -2.238281 0.835938 -2.304688 0.835938 -2.359375 C 0.835938 -2.472656 0.816406 -2.546875 0.78125 -2.582031 C 0.746094 -2.621094 0.671875 -2.640625 0.558594 -2.640625 C 0.515625 -2.640625 0.457031 -2.632812 0.390625 -2.613281 C 0.324219 -2.597656 0.269531 -2.585938 0.234375 -2.574219 L 0.277344 -2.765625 C 0.429688 -2.832031 0.566406 -2.886719 0.6875 -2.921875 C 0.808594 -2.960938 0.910156 -2.976562 0.996094 -2.976562 C 1.136719 -2.976562 1.242188 -2.941406 1.3125 -2.871094 C 1.382812 -2.800781 1.429688 -2.703125 1.445312 -2.578125 L 1.472656 -2.578125 C 1.605469 -2.703125 1.75 -2.804688 1.90625 -2.886719 C 2.058594 -2.96875 2.210938 -3.011719 2.367188 -3.011719 C 2.667969 -3.011719 2.902344 -2.90625 3.070312 -2.703125 C 3.238281 -2.496094 3.324219 -2.21875 3.324219 -1.871094 Z M 2.394531 -0.636719 C 2.496094 -0.800781 2.574219 -0.988281 2.628906 -1.195312 C 2.683594 -1.402344 2.710938 -1.625 2.710938 -1.855469 C 2.710938 -1.960938 2.699219 -2.066406 2.679688 -2.171875 C 2.660156 -2.28125 2.632812 -2.367188 2.589844 -2.4375 C 2.546875 -2.515625 2.484375 -2.574219 2.410156 -2.617188 C 2.335938 -2.660156 2.234375 -2.683594 2.113281 -2.683594 C 2.019531 -2.683594 1.921875 -2.65625 1.808594 -2.597656 C 1.699219 -2.542969 1.5625 -2.4375 1.40625 -2.285156 L 1.023438 -0.59375 C 1.039062 -0.480469 1.097656 -0.375 1.207031 -0.277344 C 1.316406 -0.179688 1.445312 -0.128906 1.597656 -0.128906 C 1.753906 -0.128906 1.902344 -0.175781 2.039062 -0.265625 C 2.175781 -0.355469 2.296875 -0.480469 2.394531 -0.636719 Z "/>
</g>
<g id="glyph-0-15">
<path d="M 2.078125 -0.394531 L 2.054688 -0.394531 C 2.011719 -0.359375 1.960938 -0.3125 1.898438 -0.257812 C 1.839844 -0.203125 1.765625 -0.152344 1.6875 -0.101562 C 1.609375 -0.0507812 1.523438 -0.0078125 1.433594 0.0273438 C 1.339844 0.0664062 1.242188 0.0820312 1.132812 0.0820312 C 0.84375 0.0820312 0.617188 -0.0195312 0.453125 -0.226562 C 0.289062 -0.433594 0.207031 -0.714844 0.207031 -1.074219 C 0.207031 -1.320312 0.253906 -1.558594 0.347656 -1.792969 C 0.4375 -2.027344 0.5625 -2.234375 0.726562 -2.417969 C 0.878906 -2.597656 1.058594 -2.738281 1.269531 -2.847656 C 1.480469 -2.957031 1.699219 -3.011719 1.921875 -3.011719 C 2.0625 -3.011719 2.199219 -2.992188 2.324219 -2.953125 C 2.453125 -2.914062 2.554688 -2.875 2.628906 -2.824219 L 3.175781 -2.964844 L 3.210938 -2.921875 L 2.757812 -0.996094 C 2.742188 -0.933594 2.722656 -0.859375 2.707031 -0.769531 C 2.691406 -0.683594 2.683594 -0.617188 2.683594 -0.574219 C 2.683594 -0.460938 2.707031 -0.386719 2.753906 -0.347656 C 2.800781 -0.308594 2.882812 -0.285156 2.996094 -0.285156 C 3.035156 -0.285156 3.085938 -0.292969 3.15625 -0.304688 C 3.226562 -0.316406 3.28125 -0.328125 3.316406 -0.34375 L 3.273438 -0.152344 C 3.09375 -0.0820312 2.960938 -0.0273438 2.875 0.00390625 C 2.785156 0.0351562 2.679688 0.0507812 2.554688 0.0507812 C 2.410156 0.0507812 2.296875 0.0078125 2.214844 -0.0742188 C 2.128906 -0.15625 2.085938 -0.265625 2.078125 -0.394531 Z M 2.503906 -2.28125 C 2.503906 -2.34375 2.496094 -2.40625 2.480469 -2.46875 C 2.46875 -2.527344 2.441406 -2.582031 2.394531 -2.632812 C 2.355469 -2.683594 2.300781 -2.722656 2.230469 -2.753906 C 2.160156 -2.785156 2.074219 -2.796875 1.96875 -2.796875 C 1.824219 -2.796875 1.683594 -2.75 1.546875 -2.65625 C 1.410156 -2.558594 1.285156 -2.429688 1.175781 -2.269531 C 1.070312 -2.117188 0.988281 -1.9375 0.921875 -1.722656 C 0.855469 -1.507812 0.824219 -1.289062 0.824219 -1.066406 C 0.824219 -0.945312 0.832031 -0.839844 0.84375 -0.746094 C 0.859375 -0.652344 0.886719 -0.566406 0.925781 -0.488281 C 0.964844 -0.414062 1.015625 -0.355469 1.089844 -0.3125 C 1.160156 -0.269531 1.25 -0.25 1.359375 -0.25 C 1.472656 -0.25 1.589844 -0.28125 1.710938 -0.34375 C 1.832031 -0.40625 1.972656 -0.515625 2.125 -0.675781 Z "/>
</g>
<g id="glyph-0-16">
<path d="M 2.140625 -0.433594 L 2.121094 -0.433594 C 1.9375 -0.28125 1.765625 -0.160156 1.597656 -0.0703125 C 1.433594 0.015625 1.246094 0.0585938 1.035156 0.0585938 C 0.84375 0.0585938 0.691406 0.00390625 0.582031 -0.105469 C 0.46875 -0.214844 0.414062 -0.359375 0.414062 -0.539062 C 0.414062 -0.585938 0.417969 -0.644531 0.425781 -0.710938 C 0.433594 -0.777344 0.453125 -0.875 0.484375 -1.003906 L 0.714844 -1.933594 C 0.738281 -2.023438 0.753906 -2.101562 0.765625 -2.167969 C 0.777344 -2.234375 0.785156 -2.296875 0.785156 -2.359375 C 0.785156 -2.472656 0.765625 -2.546875 0.730469 -2.582031 C 0.691406 -2.617188 0.617188 -2.636719 0.503906 -2.636719 C 0.460938 -2.636719 0.40625 -2.628906 0.335938 -2.613281 C 0.269531 -2.597656 0.21875 -2.585938 0.179688 -2.574219 L 0.222656 -2.765625 C 0.378906 -2.835938 0.515625 -2.886719 0.632812 -2.925781 C 0.753906 -2.960938 0.847656 -2.976562 0.917969 -2.976562 C 1.078125 -2.976562 1.195312 -2.941406 1.273438 -2.871094 C 1.347656 -2.800781 1.386719 -2.691406 1.386719 -2.546875 C 1.386719 -2.511719 1.382812 -2.464844 1.375 -2.402344 C 1.367188 -2.339844 1.355469 -2.277344 1.339844 -2.214844 L 1.066406 -1.128906 C 1.046875 -1.042969 1.03125 -0.964844 1.015625 -0.894531 C 1.003906 -0.820312 0.996094 -0.765625 0.996094 -0.726562 C 0.996094 -0.59375 1.027344 -0.488281 1.09375 -0.410156 C 1.160156 -0.332031 1.253906 -0.296875 1.378906 -0.296875 C 1.523438 -0.296875 1.664062 -0.332031 1.804688 -0.402344 C 1.941406 -0.472656 2.070312 -0.574219 2.191406 -0.699219 L 2.6875 -2.929688 L 3.203125 -2.964844 L 3.238281 -2.921875 L 2.726562 -0.585938 C 2.652344 -0.242188 2.554688 0.0507812 2.4375 0.292969 C 2.320312 0.535156 2.183594 0.730469 2.027344 0.878906 C 1.859375 1.035156 1.683594 1.152344 1.492188 1.21875 C 1.300781 1.289062 1.082031 1.324219 0.839844 1.324219 C 0.667969 1.324219 0.535156 1.3125 0.4375 1.289062 C 0.335938 1.265625 0.257812 1.230469 0.199219 1.191406 C 0.140625 1.152344 0.101562 1.105469 0.0820312 1.054688 C 0.0625 1.007812 0.0546875 0.957031 0.0546875 0.90625 C 0.0546875 0.820312 0.078125 0.746094 0.132812 0.679688 C 0.183594 0.613281 0.257812 0.582031 0.355469 0.582031 C 0.429688 0.582031 0.492188 0.601562 0.542969 0.644531 C 0.59375 0.6875 0.636719 0.730469 0.667969 0.78125 C 0.703125 0.835938 0.738281 0.894531 0.765625 0.964844 C 0.796875 1.03125 0.820312 1.085938 0.839844 1.125 L 0.910156 1.125 C 1.023438 1.125 1.144531 1.097656 1.269531 1.042969 C 1.394531 0.984375 1.511719 0.898438 1.617188 0.78125 C 1.730469 0.652344 1.832031 0.492188 1.921875 0.289062 C 2.011719 0.0898438 2.085938 -0.152344 2.140625 -0.433594 Z "/>
</g>
<g id="glyph-0-17">
<path d="M 2.109375 -0.417969 L 2.089844 -0.417969 C 2 -0.34375 1.914062 -0.277344 1.828125 -0.214844 C 1.746094 -0.152344 1.664062 -0.101562 1.582031 -0.0585938 C 1.484375 -0.0117188 1.398438 0.0234375 1.320312 0.0429688 C 1.242188 0.0625 1.144531 0.0742188 1.015625 0.0742188 C 0.824219 0.0742188 0.679688 0.0195312 0.574219 -0.0898438 C 0.46875 -0.199219 0.414062 -0.347656 0.414062 -0.523438 C 0.414062 -0.574219 0.417969 -0.628906 0.425781 -0.695312 C 0.433594 -0.761719 0.453125 -0.859375 0.484375 -0.988281 L 0.714844 -1.933594 C 0.734375 -2.019531 0.753906 -2.097656 0.765625 -2.167969 C 0.777344 -2.234375 0.785156 -2.296875 0.785156 -2.359375 C 0.785156 -2.472656 0.765625 -2.546875 0.730469 -2.582031 C 0.691406 -2.617188 0.617188 -2.636719 0.503906 -2.636719 C 0.460938 -2.636719 0.40625 -2.628906 0.335938 -2.613281 C 0.269531 -2.597656 0.21875 -2.585938 0.179688 -2.574219 L 0.222656 -2.765625 C 0.378906 -2.835938 0.515625 -2.886719 0.632812 -2.925781 C 0.753906 -2.960938 0.847656 -2.976562 0.917969 -2.976562 C 1.078125 -2.976562 1.195312 -2.941406 1.269531 -2.867188 C 1.34375 -2.792969 1.382812 -2.683594 1.382812 -2.546875 C 1.382812 -2.511719 1.378906 -2.464844 1.371094 -2.402344 C 1.363281 -2.339844 1.347656 -2.277344 1.332031 -2.214844 L 1.066406 -1.113281 C 1.046875 -1.03125 1.03125 -0.953125 1.019531 -0.878906 C 1.007812 -0.804688 1 -0.75 1 -0.714844 C 1 -0.582031 1.027344 -0.472656 1.085938 -0.398438 C 1.144531 -0.320312 1.234375 -0.28125 1.359375 -0.28125 C 1.488281 -0.28125 1.617188 -0.3125 1.753906 -0.378906 C 1.886719 -0.445312 2.023438 -0.546875 2.15625 -0.683594 L 2.679688 -2.929688 L 3.199219 -2.964844 L 3.234375 -2.921875 L 2.789062 -1 C 2.769531 -0.917969 2.75 -0.835938 2.734375 -0.753906 C 2.71875 -0.671875 2.710938 -0.613281 2.710938 -0.578125 C 2.710938 -0.464844 2.738281 -0.386719 2.785156 -0.347656 C 2.832031 -0.308594 2.914062 -0.285156 3.027344 -0.285156 C 3.066406 -0.285156 3.121094 -0.292969 3.1875 -0.304688 C 3.257812 -0.316406 3.3125 -0.328125 3.351562 -0.34375 L 3.304688 -0.152344 C 3.140625 -0.0859375 3.003906 -0.0351562 2.890625 0 C 2.78125 0.0351562 2.679688 0.0507812 2.585938 0.0507812 C 2.425781 0.0507812 2.304688 0.00390625 2.226562 -0.0898438 C 2.148438 -0.183594 2.109375 -0.292969 2.109375 -0.417969 Z "/>
</g>
<g id="glyph-0-18">
<path d="M 3.101562 -2.457031 C 3.101562 -2.15625 3.054688 -1.847656 2.960938 -1.539062 C 2.871094 -1.226562 2.746094 -0.953125 2.585938 -0.722656 C 2.425781 -0.480469 2.234375 -0.285156 2.011719 -0.136719 C 1.789062 0.015625 1.542969 0.0898438 1.277344 0.0898438 C 1.015625 0.0898438 0.808594 0.015625 0.652344 -0.125 C 0.496094 -0.269531 0.421875 -0.464844 0.421875 -0.707031 C 0.421875 -0.753906 0.425781 -0.804688 0.4375 -0.863281 C 0.449219 -0.921875 0.457031 -0.957031 0.460938 -0.980469 L 0.71875 -1.933594 C 0.738281 -2.011719 0.757812 -2.085938 0.769531 -2.160156 C 0.785156 -2.234375 0.792969 -2.300781 0.792969 -2.355469 C 0.792969 -2.46875 0.773438 -2.542969 0.734375 -2.582031 C 0.695312 -2.617188 0.621094 -2.636719 0.507812 -2.636719 C 0.464844 -2.636719 0.410156 -2.628906 0.335938 -2.609375 C 0.265625 -2.59375 0.210938 -2.578125 0.175781 -2.570312 L 0.222656 -2.761719 C 0.375 -2.828125 0.511719 -2.882812 0.632812 -2.921875 C 0.753906 -2.960938 0.851562 -2.976562 0.921875 -2.976562 C 1.082031 -2.976562 1.199219 -2.941406 1.277344 -2.867188 C 1.351562 -2.792969 1.390625 -2.6875 1.390625 -2.546875 C 1.390625 -2.507812 1.386719 -2.460938 1.378906 -2.402344 C 1.371094 -2.347656 1.359375 -2.285156 1.34375 -2.214844 L 1.054688 -1.105469 C 1.035156 -1.027344 1.019531 -0.957031 1.011719 -0.886719 C 1 -0.816406 0.996094 -0.773438 0.996094 -0.75 C 0.996094 -0.648438 1.011719 -0.5625 1.046875 -0.5 C 1.078125 -0.433594 1.121094 -0.386719 1.167969 -0.347656 C 1.214844 -0.316406 1.269531 -0.292969 1.328125 -0.277344 C 1.382812 -0.261719 1.441406 -0.257812 1.5 -0.257812 C 1.636719 -0.257812 1.777344 -0.300781 1.921875 -0.386719 C 2.066406 -0.472656 2.191406 -0.582031 2.296875 -0.71875 C 2.414062 -0.867188 2.507812 -1.035156 2.582031 -1.21875 C 2.652344 -1.402344 2.6875 -1.605469 2.6875 -1.828125 C 2.6875 -1.949219 2.671875 -2.039062 2.640625 -2.105469 C 2.605469 -2.167969 2.570312 -2.226562 2.53125 -2.273438 C 2.492188 -2.324219 2.453125 -2.375 2.421875 -2.429688 C 2.386719 -2.484375 2.371094 -2.5625 2.371094 -2.660156 C 2.371094 -2.773438 2.410156 -2.859375 2.484375 -2.921875 C 2.5625 -2.980469 2.640625 -3.011719 2.722656 -3.011719 C 2.839844 -3.011719 2.933594 -2.964844 3 -2.867188 C 3.066406 -2.773438 3.101562 -2.636719 3.101562 -2.457031 Z "/>
</g>
<g id="glyph-0-19">
<path d="M 1.644531 -0.324219 L 1.597656 -0.132812 C 1.414062 -0.0585938 1.269531 -0.0078125 1.160156 0.0195312 C 1.050781 0.046875 0.957031 0.0625 0.878906 0.0625 C 0.71875 0.0625 0.601562 0.0195312 0.523438 -0.0625 C 0.441406 -0.144531 0.402344 -0.246094 0.402344 -0.367188 C 0.402344 -0.414062 0.40625 -0.460938 0.414062 -0.511719 C 0.421875 -0.558594 0.4375 -0.621094 0.453125 -0.699219 L 0.769531 -1.964844 C 0.785156 -2.035156 0.800781 -2.109375 0.816406 -2.191406 C 0.832031 -2.269531 0.839844 -2.335938 0.839844 -2.394531 C 0.839844 -2.503906 0.820312 -2.578125 0.78125 -2.613281 C 0.746094 -2.652344 0.671875 -2.671875 0.558594 -2.671875 C 0.515625 -2.671875 0.457031 -2.664062 0.382812 -2.648438 C 0.3125 -2.636719 0.253906 -2.625 0.21875 -2.613281 L 0.261719 -2.804688 C 0.417969 -2.875 0.558594 -2.925781 0.679688 -2.960938 C 0.804688 -2.992188 0.902344 -3.011719 0.972656 -3.011719 C 1.136719 -3.011719 1.253906 -2.972656 1.328125 -2.894531 C 1.402344 -2.816406 1.4375 -2.710938 1.4375 -2.582031 C 1.4375 -2.546875 1.433594 -2.496094 1.425781 -2.433594 C 1.417969 -2.371094 1.40625 -2.3125 1.390625 -2.25 L 1.070312 -0.980469 C 1.050781 -0.902344 1.035156 -0.828125 1.019531 -0.753906 C 1.003906 -0.679688 0.996094 -0.617188 0.996094 -0.570312 C 0.996094 -0.457031 1.023438 -0.378906 1.074219 -0.335938 C 1.125 -0.296875 1.207031 -0.273438 1.320312 -0.273438 C 1.355469 -0.273438 1.410156 -0.28125 1.480469 -0.289062 C 1.550781 -0.300781 1.605469 -0.3125 1.644531 -0.324219 Z M 1.855469 -4.136719 C 1.855469 -4.023438 1.820312 -3.925781 1.746094 -3.839844 C 1.671875 -3.757812 1.582031 -3.714844 1.472656 -3.714844 C 1.371094 -3.714844 1.28125 -3.753906 1.207031 -3.835938 C 1.132812 -3.917969 1.097656 -4.007812 1.097656 -4.113281 C 1.097656 -4.222656 1.132812 -4.316406 1.207031 -4.398438 C 1.28125 -4.480469 1.371094 -4.519531 1.472656 -4.519531 C 1.585938 -4.519531 1.675781 -4.480469 1.75 -4.40625 C 1.820312 -4.328125 1.855469 -4.238281 1.855469 -4.136719 Z "/>
</g>
<g id="glyph-0-20">
<path d="M 0.902344 0.0625 C 0.714844 0.0625 0.578125 0.0234375 0.488281 -0.0507812 C 0.402344 -0.128906 0.359375 -0.238281 0.359375 -0.382812 C 0.359375 -0.429688 0.359375 -0.472656 0.367188 -0.511719 C 0.371094 -0.550781 0.382812 -0.597656 0.390625 -0.652344 L 0.851562 -2.644531 L 0.320312 -2.644531 L 0.386719 -2.914062 L 0.929688 -2.914062 L 1.136719 -3.789062 L 1.671875 -3.789062 L 1.472656 -2.914062 L 2.304688 -2.914062 L 2.242188 -2.644531 L 1.414062 -2.644531 L 1.03125 -1 C 1.015625 -0.925781 1 -0.851562 0.988281 -0.78125 C 0.976562 -0.710938 0.96875 -0.648438 0.96875 -0.601562 C 0.96875 -0.492188 0.996094 -0.410156 1.050781 -0.359375 C 1.105469 -0.308594 1.207031 -0.285156 1.347656 -0.285156 C 1.398438 -0.285156 1.472656 -0.289062 1.566406 -0.304688 C 1.660156 -0.316406 1.734375 -0.332031 1.785156 -0.351562 L 1.734375 -0.132812 C 1.59375 -0.078125 1.464844 -0.0351562 1.339844 0.00390625 C 1.214844 0.0429688 1.070312 0.0625 0.902344 0.0625 Z "/>
</g>
<g id="glyph-0-21">
<path d="M 3.265625 -0.347656 L 3.21875 -0.15625 C 3.039062 -0.0820312 2.902344 -0.03125 2.800781 0 C 2.703125 0.0351562 2.601562 0.0507812 2.5 0.0507812 C 2.339844 0.0507812 2.222656 0.0078125 2.140625 -0.0742188 C 2.0625 -0.15625 2.023438 -0.257812 2.023438 -0.378906 C 2.023438 -0.421875 2.027344 -0.472656 2.035156 -0.523438 C 2.042969 -0.578125 2.054688 -0.636719 2.074219 -0.710938 L 2.367188 -1.824219 C 2.386719 -1.910156 2.40625 -1.984375 2.417969 -2.054688 C 2.429688 -2.125 2.4375 -2.179688 2.4375 -2.222656 C 2.4375 -2.355469 2.40625 -2.460938 2.34375 -2.539062 C 2.277344 -2.617188 2.183594 -2.65625 2.058594 -2.65625 C 1.929688 -2.65625 1.792969 -2.613281 1.644531 -2.53125 C 1.496094 -2.449219 1.355469 -2.335938 1.222656 -2.191406 L 0.71875 0 L 0.164062 0 L 1.050781 -3.839844 C 1.058594 -3.886719 1.070312 -3.925781 1.074219 -3.957031 C 1.082031 -3.988281 1.085938 -4.023438 1.085938 -4.058594 C 1.085938 -4.128906 1.074219 -4.183594 1.050781 -4.222656 C 1.027344 -4.261719 0.992188 -4.292969 0.949219 -4.3125 C 0.910156 -4.328125 0.859375 -4.339844 0.792969 -4.347656 C 0.726562 -4.351562 0.664062 -4.359375 0.597656 -4.367188 L 0.636719 -4.550781 L 1.746094 -4.617188 L 1.773438 -4.574219 L 1.296875 -2.507812 L 1.308594 -2.507812 C 1.515625 -2.671875 1.699219 -2.800781 1.859375 -2.882812 C 2.019531 -2.96875 2.203125 -3.011719 2.40625 -3.011719 C 2.597656 -3.011719 2.746094 -2.957031 2.855469 -2.84375 C 2.960938 -2.734375 3.015625 -2.589844 3.015625 -2.410156 C 3.015625 -2.375 3.011719 -2.3125 3 -2.21875 C 2.988281 -2.128906 2.972656 -2.039062 2.949219 -1.949219 L 2.695312 -0.992188 C 2.679688 -0.925781 2.664062 -0.855469 2.644531 -0.769531 C 2.628906 -0.6875 2.621094 -0.625 2.621094 -0.578125 C 2.621094 -0.464844 2.644531 -0.386719 2.695312 -0.347656 C 2.746094 -0.308594 2.824219 -0.285156 2.9375 -0.285156 C 2.976562 -0.285156 3.03125 -0.292969 3.101562 -0.304688 C 3.171875 -0.320312 3.226562 -0.332031 3.265625 -0.347656 Z "/>
</g>
<g id="glyph-0-22">
<path d="M 1.328125 0.0820312 C 0.980469 0.0820312 0.703125 -0.0195312 0.503906 -0.222656 C 0.300781 -0.425781 0.199219 -0.710938 0.199219 -1.085938 C 0.199219 -1.335938 0.238281 -1.574219 0.316406 -1.800781 C 0.390625 -2.027344 0.5 -2.230469 0.636719 -2.40625 C 0.773438 -2.585938 0.945312 -2.730469 1.15625 -2.84375 C 1.367188 -2.953125 1.597656 -3.011719 1.855469 -3.011719 C 2.140625 -3.011719 2.355469 -2.949219 2.503906 -2.828125 C 2.652344 -2.707031 2.726562 -2.558594 2.726562 -2.375 C 2.726562 -2.238281 2.695312 -2.117188 2.628906 -2.015625 C 2.566406 -1.910156 2.46875 -1.859375 2.339844 -1.859375 C 2.230469 -1.859375 2.152344 -1.886719 2.097656 -1.9375 C 2.042969 -1.992188 2.015625 -2.050781 2.015625 -2.117188 C 2.015625 -2.179688 2.039062 -2.269531 2.082031 -2.378906 C 2.125 -2.488281 2.160156 -2.578125 2.1875 -2.644531 C 2.164062 -2.699219 2.117188 -2.738281 2.039062 -2.765625 C 1.964844 -2.789062 1.886719 -2.800781 1.804688 -2.800781 C 1.535156 -2.800781 1.300781 -2.644531 1.105469 -2.328125 C 0.910156 -2.011719 0.8125 -1.628906 0.8125 -1.167969 C 0.8125 -0.886719 0.875 -0.664062 1 -0.496094 C 1.128906 -0.332031 1.296875 -0.246094 1.511719 -0.246094 C 1.707031 -0.246094 1.878906 -0.300781 2.027344 -0.402344 C 2.175781 -0.507812 2.320312 -0.652344 2.457031 -0.839844 L 2.628906 -0.714844 C 2.492188 -0.5 2.304688 -0.3125 2.070312 -0.152344 C 1.832031 0.00390625 1.585938 0.0820312 1.328125 0.0820312 Z "/>
</g>
<g id="glyph-0-23">
<path d="M 3.429688 -0.347656 L 3.382812 -0.15625 C 3.203125 -0.0820312 3.066406 -0.03125 2.964844 0 C 2.867188 0.0351562 2.765625 0.0507812 2.664062 0.0507812 C 2.503906 0.0507812 2.386719 0.0078125 2.304688 -0.0742188 C 2.226562 -0.15625 2.1875 -0.257812 2.1875 -0.378906 C 2.1875 -0.421875 2.191406 -0.472656 2.199219 -0.523438 C 2.207031 -0.578125 2.21875 -0.636719 2.238281 -0.710938 L 2.53125 -1.824219 C 2.550781 -1.910156 2.570312 -1.984375 2.582031 -2.054688 C 2.59375 -2.125 2.601562 -2.179688 2.601562 -2.222656 C 2.601562 -2.355469 2.570312 -2.460938 2.507812 -2.539062 C 2.441406 -2.617188 2.347656 -2.65625 2.222656 -2.65625 C 2.101562 -2.65625 1.964844 -2.617188 1.8125 -2.535156 C 1.664062 -2.457031 1.519531 -2.339844 1.386719 -2.191406 L 0.882812 0 L 0.328125 0 L 0.773438 -1.933594 C 0.78125 -1.980469 0.796875 -2.050781 0.816406 -2.140625 C 0.835938 -2.230469 0.84375 -2.304688 0.84375 -2.359375 C 0.84375 -2.472656 0.824219 -2.546875 0.789062 -2.582031 C 0.75 -2.621094 0.675781 -2.640625 0.5625 -2.640625 C 0.519531 -2.640625 0.460938 -2.632812 0.394531 -2.617188 C 0.328125 -2.601562 0.273438 -2.589844 0.234375 -2.582031 L 0.28125 -2.773438 C 0.4375 -2.84375 0.574219 -2.894531 0.691406 -2.925781 C 0.8125 -2.960938 0.914062 -2.976562 1 -2.976562 C 1.15625 -2.976562 1.269531 -2.933594 1.335938 -2.847656 C 1.402344 -2.761719 1.441406 -2.644531 1.445312 -2.496094 L 1.460938 -2.496094 C 1.679688 -2.667969 1.871094 -2.800781 2.027344 -2.882812 C 2.1875 -2.96875 2.367188 -3.011719 2.570312 -3.011719 C 2.761719 -3.011719 2.910156 -2.957031 3.019531 -2.84375 C 3.125 -2.734375 3.179688 -2.589844 3.179688 -2.410156 C 3.179688 -2.375 3.175781 -2.3125 3.164062 -2.21875 C 3.152344 -2.128906 3.136719 -2.039062 3.113281 -1.949219 L 2.859375 -0.992188 C 2.84375 -0.925781 2.824219 -0.855469 2.808594 -0.769531 C 2.792969 -0.6875 2.785156 -0.625 2.785156 -0.578125 C 2.785156 -0.464844 2.808594 -0.386719 2.859375 -0.347656 C 2.910156 -0.308594 2.988281 -0.285156 3.101562 -0.285156 C 3.140625 -0.285156 3.195312 -0.292969 3.265625 -0.304688 C 3.335938 -0.320312 3.390625 -0.332031 3.429688 -0.347656 Z "/>
</g>
</g>
<image id="source-103" x="0" y="0" width="0" height="0"/>
<mask id="mask-0">
<use xlink:href="#source-103"/>
</mask>
</defs>
<g fill="rgb(26.666667%, 26.666667%, 35.294118%)" fill-opacity="1">
<use xlink:href="#glyph-0-0" x="30" y="25.603516"/>
<use xlink:href="#glyph-0-1" x="34" y="25.603516"/>
<use xlink:href="#glyph-0-2" x="37" y="25.603516"/>
<use xlink:href="#glyph-0-2" x="41" y="25.603516"/>
<use xlink:href="#glyph-0-3" x="45" y="25.603516"/>
<use xlink:href="#glyph-0-4" x="48" y="25.603516"/>
<use xlink:href="#glyph-0-4" x="51" y="25.603516"/>
<use xlink:href="#glyph-0-5" x="54" y="25.603516"/>
<use xlink:href="#glyph-0-1" x="55" y="25.603516"/>
<use xlink:href="#glyph-0-6" x="58" y="25.603516"/>
<use xlink:href="#glyph-0-5" x="60" y="25.603516"/>
<use xlink:href="#glyph-0-7" x="61" y="25.603516"/>
<use xlink:href="#glyph-0-8" x="65" y="25.603516"/>
<use xlink:href="#glyph-0-1" x="67" y="25.603516"/>
<use xlink:href="#glyph-0-9" x="70" y="25.603516"/>
<use xlink:href="#glyph-0-3" x="75" y="25.603516"/>
<use xlink:href="#glyph-0-10" x="78" y="25.603516"/>
<use xlink:href="#glyph-0-4" x="81" y="25.603516"/>
<use xlink:href="#glyph-0-11" x="84" y="25.603516"/>
<use xlink:href="#glyph-0-5" x="86" y="25.603516"/>
<use xlink:href="#glyph-0-12" x="87" y="25.603516"/>
<use xlink:href="#glyph-0-3" x="91" y="25.603516"/>
<use xlink:href="#glyph-0-13" x="94" y="25.603516"/>
<use xlink:href="#glyph-0-14" x="99" y="25.603516"/>
<use xlink:href="#glyph-0-1" x="103" y="25.603516"/>
<use xlink:href="#glyph-0-10" x="106" y="25.603516"/>
<use xlink:href="#glyph-0-15" x="109" y="25.603516"/>
<use xlink:href="#glyph-0-10" x="113" y="25.603516"/>
<use xlink:href="#glyph-0-16" x="116" y="25.603516"/>
<use xlink:href="#glyph-0-5" x="119" y="25.603516"/>
<use xlink:href="#glyph-0-4" x="120" y="25.603516"/>
<use xlink:href="#glyph-0-17" x="123" y="25.603516"/>
<use xlink:href="#glyph-0-14" x="127" y="25.603516"/>
<use xlink:href="#glyph-0-3" x="131" y="25.603516"/>
<use xlink:href="#glyph-0-10" x="134" y="25.603516"/>
<use xlink:href="#glyph-0-18" x="137" y="25.603516"/>
<use xlink:href="#glyph-0-19" x="140" y="25.603516"/>
<use xlink:href="#glyph-0-4" x="142" y="25.603516"/>
<use xlink:href="#glyph-0-1" x="145" y="25.603516"/>
<use xlink:href="#glyph-0-10" x="148" y="25.603516"/>
<use xlink:href="#glyph-0-5" x="151" y="25.603516"/>
<use xlink:href="#glyph-0-1" x="152" y="25.603516"/>
<use xlink:href="#glyph-0-6" x="155" y="25.603516"/>
<use xlink:href="#glyph-0-5" x="157" y="25.603516"/>
<use xlink:href="#glyph-0-16" x="158" y="25.603516"/>
<use xlink:href="#glyph-0-1" x="161" y="25.603516"/>
<use xlink:href="#glyph-0-17" x="164" y="25.603516"/>
<use xlink:href="#glyph-0-10" x="168" y="25.603516"/>
<use xlink:href="#glyph-0-5" x="171" y="25.603516"/>
<use xlink:href="#glyph-0-2" x="172" y="25.603516"/>
<use xlink:href="#glyph-0-3" x="176" y="25.603516"/>
<use xlink:href="#glyph-0-15" x="179" y="25.603516"/>
<use xlink:href="#glyph-0-20" x="183" y="25.603516"/>
<use xlink:href="#glyph-0-21" x="185" y="25.603516"/>
<use xlink:href="#glyph-0-5" x="188" y="25.603516"/>
<use xlink:href="#glyph-0-22" x="189" y="25.603516"/>
<use xlink:href="#glyph-0-1" x="192" y="25.603516"/>
<use xlink:href="#glyph-0-13" x="195" y="25.603516"/>
<use xlink:href="#glyph-0-14" x="200" y="25.603516"/>
<use xlink:href="#glyph-0-8" x="204" y="25.603516"/>
<use xlink:href="#glyph-0-15" x="206" y="25.603516"/>
<use xlink:href="#glyph-0-19" x="210" y="25.603516"/>
<use xlink:href="#glyph-0-23" x="212" y="25.603516"/>
<use xlink:href="#glyph-0-20" x="216" y="25.603516"/>
<use xlink:href="#glyph-0-11" x="218" y="25.603516"/>
</g>
</svg>
