<?xml version="1.0" encoding="UTF-8"?>
<svg xmlns="http://www.w3.org/2000/svg" xmlns:xlink="http://www.w3.org/1999/xlink" width="1920" height="1080" viewBox="0 0 1920 1080">
<defs>
<g>
<g id="glyph-0-0">
<path d="M 5.648438 -5.773438 L 5.324219 -4.382812 L 5.019531 -4.382812 C 5.003906 -4.667969 4.945312 -4.910156 4.839844 -5.105469 C 4.734375 -5.300781 4.59375 -5.414062 4.417969 -5.441406 C 4.335938 -5.453125 4.238281 -5.460938 4.121094 -5.464844 C 4.003906 -5.46875 3.875 -5.472656 3.726562 -5.472656 L 2.800781 -5.472656 L 2.265625 -3.148438 L 2.917969 -3.148438 C 3.117188 -3.148438 3.273438 -3.167969 3.386719 -3.207031 C 3.496094 -3.246094 3.59375 -3.3125 3.683594 -3.40625 C 3.765625 -3.488281 3.84375 -3.597656 3.917969 -3.742188 C 3.996094 -3.882812 4.046875 -4.003906 4.082031 -4.101562 L 4.386719 -4.101562 L 3.867188 -1.84375 L 3.5625 -1.84375 C 3.5625 -1.875 3.566406 -1.910156 3.570312 -1.949219 C 3.574219 -1.992188 3.578125 -2.039062 3.578125 -2.085938 C 3.578125 -2.1875 3.570312 -2.285156 3.554688 -2.375 C 3.542969 -2.46875 3.523438 -2.535156 3.5 -2.578125 C 3.441406 -2.683594 3.359375 -2.753906 3.253906 -2.789062 C 3.148438 -2.820312 3.011719 -2.835938 2.839844 -2.835938 L 2.1875 -2.835938 L 1.785156 -1.074219 C 1.769531 -1.007812 1.757812 -0.9375 1.746094 -0.863281 C 1.734375 -0.785156 1.730469 -0.726562 1.730469 -0.683594 C 1.730469 -0.535156 1.78125 -0.433594 1.890625 -0.386719 C 1.996094 -0.335938 2.234375 -0.3125 2.601562 -0.3125 C 3.054688 -0.3125 3.363281 -0.328125 3.527344 -0.363281 C 3.691406 -0.394531 3.8125 -0.441406 3.890625 -0.503906 C 4.042969 -0.628906 4.226562 -0.828125 4.433594 -1.101562 C 4.640625 -1.375 4.78125 -1.574219 4.851562 -1.699219 L 5.144531 -1.699219 L 4.640625 0 L -0.152344 0 L -0.0898438 -0.269531 C -0.00390625 -0.273438 0.105469 -0.285156 0.242188 -0.304688 C 0.382812 -0.320312 0.476562 -0.339844 0.523438 -0.359375 C 0.621094 -0.394531 0.691406 -0.445312 0.742188 -0.515625 C 0.792969 -0.585938 0.828125 -0.671875 0.847656 -0.765625 L 1.816406 -4.957031 C 1.820312 -4.976562 1.824219 -5.003906 1.828125 -5.027344 C 1.832031 -5.054688 1.835938 -5.082031 1.835938 -5.105469 C 1.835938 -5.160156 1.824219 -5.210938 1.800781 -5.253906 C 1.777344 -5.296875 1.734375 -5.332031 1.675781 -5.363281 C 1.609375 -5.398438 1.519531 -5.429688 1.398438 -5.457031 C 1.28125 -5.484375 1.1875 -5.5 1.117188 -5.503906 L 1.179688 -5.773438 Z "/>
</g>
<g id="glyph-0-1">
<path d="M 4.226562 -3.351562 C 4.226562 -2.941406 4.164062 -2.523438 4.039062 -2.097656 C 3.914062 -1.671875 3.746094 -1.300781 3.527344 -0.984375 C 3.308594 -0.65625 3.046875 -0.390625 2.742188 -0.183594 C 2.4375 0.0195312 2.105469 0.121094 1.742188 0.121094 C 1.386719 0.121094 1.101562 0.0234375 0.890625 -0.171875 C 0.679688 -0.371094 0.574219 -0.632812 0.574219 -0.964844 C 0.574219 -1.027344 0.582031 -1.097656 0.597656 -1.175781 C 0.613281 -1.253906 0.621094 -1.308594 0.625 -1.335938 L 0.980469 -2.636719 C 1.007812 -2.742188 1.03125 -2.847656 1.050781 -2.949219 C 1.070312 -3.050781 1.082031 -3.136719 1.082031 -3.214844 C 1.082031 -3.367188 1.054688 -3.46875 1.003906 -3.519531 C 0.949219 -3.570312 0.847656 -3.597656 0.691406 -3.597656 C 0.632812 -3.597656 0.558594 -3.585938 0.460938 -3.558594 C 0.363281 -3.535156 0.289062 -3.515625 0.238281 -3.503906 L 0.300781 -3.765625 C 0.511719 -3.859375 0.699219 -3.933594 0.863281 -3.984375 C 1.027344 -4.035156 1.160156 -4.0625 1.257812 -4.0625 C 1.472656 -4.0625 1.636719 -4.011719 1.738281 -3.910156 C 1.84375 -3.808594 1.894531 -3.664062 1.894531 -3.476562 C 1.894531 -3.421875 1.890625 -3.355469 1.882812 -3.277344 C 1.871094 -3.199219 1.855469 -3.117188 1.832031 -3.023438 L 1.441406 -1.503906 C 1.414062 -1.402344 1.394531 -1.304688 1.378906 -1.207031 C 1.367188 -1.113281 1.359375 -1.050781 1.359375 -1.023438 C 1.359375 -0.882812 1.382812 -0.769531 1.425781 -0.679688 C 1.472656 -0.59375 1.527344 -0.523438 1.59375 -0.476562 C 1.660156 -0.429688 1.730469 -0.398438 1.808594 -0.378906 C 1.886719 -0.359375 1.964844 -0.351562 2.046875 -0.351562 C 2.230469 -0.351562 2.421875 -0.410156 2.617188 -0.523438 C 2.816406 -0.640625 2.988281 -0.792969 3.132812 -0.980469 C 3.292969 -1.183594 3.421875 -1.410156 3.519531 -1.664062 C 3.617188 -1.914062 3.667969 -2.191406 3.667969 -2.496094 C 3.667969 -2.65625 3.644531 -2.78125 3.597656 -2.871094 C 3.554688 -2.957031 3.503906 -3.035156 3.449219 -3.101562 C 3.394531 -3.167969 3.347656 -3.238281 3.300781 -3.3125 C 3.257812 -3.386719 3.234375 -3.492188 3.234375 -3.628906 C 3.234375 -3.785156 3.285156 -3.902344 3.390625 -3.984375 C 3.492188 -4.066406 3.601562 -4.105469 3.714844 -4.105469 C 3.875 -4.105469 4 -4.042969 4.089844 -3.914062 C 4.179688 -3.785156 4.226562 -3.597656 4.226562 -3.351562 Z "/>
</g>
<g id="glyph-0-2">
<path d="M 3.769531 -3.257812 C 3.769531 -2.972656 3.675781 -2.726562 3.496094 -2.519531 C 3.316406 -2.3125 3.054688 -2.148438 2.710938 -2.027344 C 2.457031 -1.933594 2.203125 -1.859375 1.945312 -1.800781 C 1.6875 -1.746094 1.402344 -1.699219 1.089844 -1.660156 C 1.089844 -1.230469 1.167969 -0.902344 1.328125 -0.675781 C 1.488281 -0.449219 1.71875 -0.335938 2.027344 -0.335938 C 2.296875 -0.335938 2.535156 -0.40625 2.746094 -0.542969 C 2.953125 -0.675781 3.15625 -0.878906 3.355469 -1.148438 L 3.589844 -0.976562 C 3.371094 -0.644531 3.101562 -0.382812 2.773438 -0.183594 C 2.449219 0.015625 2.113281 0.113281 1.761719 0.113281 C 1.28125 0.113281 0.914062 -0.0195312 0.660156 -0.289062 C 0.40625 -0.558594 0.28125 -0.9375 0.28125 -1.433594 C 0.28125 -1.773438 0.335938 -2.101562 0.441406 -2.410156 C 0.546875 -2.722656 0.707031 -3.003906 0.910156 -3.261719 C 1.113281 -3.515625 1.359375 -3.71875 1.648438 -3.875 C 1.941406 -4.027344 2.261719 -4.105469 2.617188 -4.105469 C 3.007812 -4.105469 3.296875 -4.027344 3.484375 -3.867188 C 3.671875 -3.707031 3.769531 -3.507812 3.769531 -3.257812 Z M 3.019531 -3.359375 C 3.019531 -3.464844 3.003906 -3.550781 2.972656 -3.609375 C 2.945312 -3.671875 2.90625 -3.71875 2.859375 -3.746094 C 2.8125 -3.78125 2.761719 -3.800781 2.707031 -3.808594 C 2.652344 -3.816406 2.597656 -3.820312 2.539062 -3.820312 C 2.214844 -3.820312 1.914062 -3.640625 1.636719 -3.285156 C 1.363281 -2.925781 1.1875 -2.480469 1.113281 -1.945312 C 1.304688 -1.972656 1.519531 -2.011719 1.757812 -2.0625 C 1.996094 -2.113281 2.195312 -2.175781 2.351562 -2.257812 C 2.578125 -2.375 2.746094 -2.523438 2.855469 -2.707031 C 2.964844 -2.890625 3.019531 -3.109375 3.019531 -3.359375 Z "/>
</g>
<g id="glyph-0-3">
<path d="M 3.882812 -3.441406 C 3.882812 -3.367188 3.871094 -3.28125 3.847656 -3.191406 C 3.828125 -3.101562 3.796875 -3.027344 3.753906 -2.964844 C 3.707031 -2.890625 3.652344 -2.835938 3.59375 -2.796875 C 3.535156 -2.757812 3.453125 -2.738281 3.34375 -2.738281 C 3.199219 -2.738281 3.089844 -2.773438 3.015625 -2.847656 C 2.941406 -2.921875 2.90625 -3.003906 2.90625 -3.09375 C 2.90625 -3.175781 2.925781 -3.269531 2.964844 -3.375 C 3.007812 -3.480469 3.050781 -3.582031 3.09375 -3.6875 C 3.058594 -3.6875 3.007812 -3.675781 2.929688 -3.660156 C 2.855469 -3.640625 2.765625 -3.609375 2.660156 -3.554688 C 2.554688 -3.503906 2.433594 -3.425781 2.300781 -3.324219 C 2.167969 -3.222656 2.023438 -3.085938 1.871094 -2.914062 L 1.214844 0 L 0.460938 0 L 1.054688 -2.636719 C 1.066406 -2.703125 1.085938 -2.800781 1.113281 -2.929688 C 1.140625 -3.058594 1.152344 -3.15625 1.152344 -3.21875 C 1.152344 -3.371094 1.125 -3.472656 1.074219 -3.523438 C 1.023438 -3.574219 0.917969 -3.601562 0.765625 -3.601562 C 0.707031 -3.601562 0.628906 -3.589844 0.535156 -3.570312 C 0.445312 -3.550781 0.371094 -3.53125 0.320312 -3.519531 L 0.382812 -3.78125 C 0.59375 -3.875 0.78125 -3.945312 0.945312 -3.992188 C 1.105469 -4.039062 1.246094 -4.0625 1.363281 -4.0625 C 1.582031 -4.0625 1.734375 -4 1.828125 -3.882812 C 1.917969 -3.765625 1.964844 -3.589844 1.964844 -3.351562 L 1.988281 -3.351562 C 2.3125 -3.632812 2.558594 -3.828125 2.722656 -3.9375 C 2.890625 -4.050781 3.066406 -4.105469 3.246094 -4.105469 C 3.332031 -4.105469 3.417969 -4.09375 3.5 -4.074219 C 3.582031 -4.050781 3.648438 -4.015625 3.707031 -3.964844 C 3.765625 -3.90625 3.808594 -3.839844 3.839844 -3.765625 C 3.867188 -3.691406 3.882812 -3.582031 3.882812 -3.441406 Z "/>
</g>
<g id="glyph-0-4">
<path d="M 2.917969 -0.589844 L 2.894531 -0.589844 C 2.644531 -0.382812 2.40625 -0.21875 2.179688 -0.0976562 C 1.957031 0.0234375 1.699219 0.0820312 1.410156 0.0820312 C 1.152344 0.0820312 0.945312 0.0078125 0.792969 -0.144531 C 0.640625 -0.296875 0.566406 -0.492188 0.566406 -0.738281 C 0.566406 -0.800781 0.570312 -0.878906 0.582031 -0.96875 C 0.59375 -1.058594 0.617188 -1.191406 0.660156 -1.367188 L 0.976562 -2.636719 C 1.007812 -2.757812 1.03125 -2.863281 1.046875 -2.957031 C 1.0625 -3.046875 1.070312 -3.132812 1.070312 -3.21875 C 1.070312 -3.371094 1.046875 -3.472656 0.996094 -3.523438 C 0.945312 -3.574219 0.84375 -3.597656 0.6875 -3.597656 C 0.628906 -3.597656 0.550781 -3.585938 0.460938 -3.5625 C 0.367188 -3.542969 0.296875 -3.523438 0.242188 -3.511719 L 0.304688 -3.773438 C 0.515625 -3.867188 0.703125 -3.9375 0.863281 -3.988281 C 1.027344 -4.035156 1.15625 -4.0625 1.253906 -4.0625 C 1.46875 -4.0625 1.632812 -4.011719 1.734375 -3.914062 C 1.839844 -3.816406 1.890625 -3.671875 1.890625 -3.476562 C 1.890625 -3.425781 1.886719 -3.359375 1.875 -3.277344 C 1.863281 -3.191406 1.847656 -3.105469 1.828125 -3.023438 L 1.457031 -1.539062 C 1.429688 -1.425781 1.40625 -1.316406 1.386719 -1.21875 C 1.367188 -1.121094 1.359375 -1.042969 1.359375 -0.992188 C 1.359375 -0.8125 1.402344 -0.667969 1.492188 -0.5625 C 1.578125 -0.457031 1.707031 -0.402344 1.878906 -0.402344 C 2.078125 -0.402344 2.269531 -0.453125 2.460938 -0.550781 C 2.648438 -0.648438 2.824219 -0.78125 2.992188 -0.953125 L 3.667969 -3.996094 L 4.371094 -4.042969 L 4.417969 -3.984375 L 3.71875 -0.796875 C 3.617188 -0.332031 3.484375 0.0664062 3.324219 0.398438 C 3.164062 0.730469 2.976562 0.996094 2.761719 1.199219 C 2.539062 1.414062 2.292969 1.570312 2.035156 1.664062 C 1.773438 1.757812 1.476562 1.804688 1.144531 1.804688 C 0.914062 1.804688 0.730469 1.789062 0.59375 1.757812 C 0.457031 1.726562 0.351562 1.679688 0.273438 1.625 C 0.195312 1.570312 0.140625 1.507812 0.113281 1.441406 C 0.0859375 1.371094 0.0742188 1.304688 0.0742188 1.238281 C 0.0742188 1.121094 0.109375 1.015625 0.179688 0.925781 C 0.25 0.835938 0.351562 0.792969 0.484375 0.792969 C 0.585938 0.792969 0.671875 0.820312 0.742188 0.878906 C 0.8125 0.9375 0.867188 1 0.910156 1.066406 C 0.960938 1.140625 1.003906 1.222656 1.046875 1.3125 C 1.085938 1.40625 1.117188 1.480469 1.144531 1.535156 L 1.242188 1.535156 C 1.394531 1.535156 1.558594 1.496094 1.730469 1.421875 C 1.902344 1.34375 2.0625 1.226562 2.207031 1.066406 C 2.359375 0.890625 2.5 0.667969 2.621094 0.394531 C 2.746094 0.121094 2.84375 -0.207031 2.917969 -0.589844 Z "/>
</g>
<g id="glyph-0-5">
<rect x="0" y="0" width="0" height="0" mask="url(#mask-0)"/>
</g>
<g id="glyph-0-6">
<path d="M 4.328125 -2.550781 C 4.328125 -2.191406 4.265625 -1.84375 4.132812 -1.515625 C 4.003906 -1.1875 3.832031 -0.902344 3.617188 -0.664062 C 3.398438 -0.417969 3.148438 -0.226562 2.871094 -0.0859375 C 2.59375 0.0507812 2.304688 0.121094 1.992188 0.121094 C 1.761719 0.121094 1.554688 0.101562 1.378906 0.0625 C 1.199219 0.0234375 1.046875 -0.03125 0.921875 -0.0976562 C 0.796875 -0.167969 0.691406 -0.246094 0.605469 -0.335938 C 0.523438 -0.425781 0.445312 -0.523438 0.378906 -0.628906 L 1.429688 -5.238281 C 1.441406 -5.300781 1.453125 -5.351562 1.460938 -5.398438 C 1.472656 -5.441406 1.476562 -5.488281 1.476562 -5.535156 C 1.476562 -5.632812 1.460938 -5.707031 1.429688 -5.757812 C 1.394531 -5.8125 1.347656 -5.851562 1.289062 -5.878906 C 1.234375 -5.902344 1.160156 -5.921875 1.074219 -5.929688 C 0.988281 -5.9375 0.898438 -5.945312 0.808594 -5.957031 L 0.867188 -6.203125 L 2.375 -6.296875 L 2.417969 -6.238281 L 1.796875 -3.53125 L 1.816406 -3.53125 C 2.058594 -3.75 2.273438 -3.898438 2.460938 -3.980469 C 2.644531 -4.0625 2.828125 -4.105469 3.003906 -4.105469 C 3.414062 -4.105469 3.738281 -3.964844 3.976562 -3.683594 C 4.210938 -3.402344 4.328125 -3.027344 4.328125 -2.550781 Z M 3.492188 -2.53125 C 3.492188 -2.675781 3.476562 -2.820312 3.453125 -2.964844 C 3.425781 -3.109375 3.382812 -3.230469 3.324219 -3.328125 C 3.261719 -3.429688 3.175781 -3.511719 3.066406 -3.574219 C 2.957031 -3.632812 2.824219 -3.660156 2.664062 -3.660156 C 2.570312 -3.660156 2.480469 -3.644531 2.398438 -3.613281 C 2.3125 -3.582031 2.226562 -3.539062 2.136719 -3.484375 C 2.058594 -3.433594 1.980469 -3.375 1.90625 -3.304688 C 1.832031 -3.238281 1.761719 -3.175781 1.699219 -3.121094 L 1.160156 -0.707031 C 1.167969 -0.652344 1.191406 -0.59375 1.234375 -0.527344 C 1.273438 -0.464844 1.324219 -0.40625 1.386719 -0.359375 C 1.464844 -0.296875 1.550781 -0.25 1.644531 -0.214844 C 1.738281 -0.183594 1.84375 -0.167969 1.957031 -0.167969 C 2.171875 -0.167969 2.371094 -0.230469 2.5625 -0.355469 C 2.75 -0.480469 2.910156 -0.652344 3.046875 -0.867188 C 3.195312 -1.101562 3.308594 -1.359375 3.382812 -1.648438 C 3.453125 -1.9375 3.492188 -2.230469 3.492188 -2.53125 Z "/>
</g>
<g id="glyph-0-7">
<path d="M 4.203125 -2.507812 C 4.203125 -2.1875 4.148438 -1.867188 4.039062 -1.546875 C 3.929688 -1.226562 3.773438 -0.945312 3.570312 -0.703125 C 3.359375 -0.453125 3.109375 -0.253906 2.8125 -0.105469 C 2.519531 0.046875 2.179688 0.121094 1.789062 0.121094 C 1.339844 0.121094 0.972656 -0.0234375 0.695312 -0.3125 C 0.414062 -0.601562 0.273438 -0.996094 0.273438 -1.484375 C 0.273438 -1.84375 0.332031 -2.183594 0.453125 -2.496094 C 0.570312 -2.808594 0.730469 -3.082031 0.933594 -3.316406 C 1.136719 -3.550781 1.386719 -3.742188 1.6875 -3.886719 C 1.988281 -4.03125 2.3125 -4.105469 2.660156 -4.105469 C 3.144531 -4.105469 3.523438 -3.957031 3.792969 -3.664062 C 4.066406 -3.371094 4.203125 -2.984375 4.203125 -2.507812 Z M 3.375 -2.660156 C 3.375 -3.046875 3.304688 -3.335938 3.167969 -3.527344 C 3.03125 -3.71875 2.832031 -3.816406 2.574219 -3.816406 C 2.351562 -3.816406 2.136719 -3.746094 1.9375 -3.609375 C 1.738281 -3.472656 1.566406 -3.246094 1.425781 -2.933594 C 1.3125 -2.699219 1.230469 -2.433594 1.179688 -2.144531 C 1.128906 -1.855469 1.101562 -1.589844 1.101562 -1.347656 C 1.101562 -0.960938 1.167969 -0.664062 1.304688 -0.464844 C 1.4375 -0.265625 1.640625 -0.167969 1.914062 -0.167969 C 2.15625 -0.167969 2.367188 -0.242188 2.554688 -0.394531 C 2.742188 -0.546875 2.894531 -0.738281 3.011719 -0.972656 C 3.128906 -1.199219 3.21875 -1.460938 3.28125 -1.753906 C 3.34375 -2.050781 3.375 -2.351562 3.375 -2.660156 Z "/>
</g>
<g id="glyph-0-8">
<path d="M 4.675781 -0.472656 L 4.613281 -0.210938 C 4.371094 -0.113281 4.179688 -0.0429688 4.042969 0.00390625 C 3.910156 0.046875 3.773438 0.0703125 3.632812 0.0703125 C 3.417969 0.0703125 3.253906 0.0117188 3.144531 -0.101562 C 3.035156 -0.210938 2.984375 -0.351562 2.984375 -0.515625 C 2.984375 -0.574219 2.988281 -0.640625 3 -0.714844 C 3.011719 -0.785156 3.027344 -0.871094 3.050781 -0.96875 L 3.449219 -2.484375 C 3.480469 -2.601562 3.503906 -2.707031 3.523438 -2.804688 C 3.539062 -2.898438 3.546875 -2.972656 3.546875 -3.03125 C 3.546875 -3.214844 3.503906 -3.355469 3.417969 -3.460938 C 3.332031 -3.566406 3.203125 -3.621094 3.03125 -3.621094 C 2.867188 -3.621094 2.679688 -3.566406 2.472656 -3.457031 C 2.265625 -3.347656 2.074219 -3.191406 1.890625 -2.988281 L 1.203125 0 L 0.449219 0 L 1.054688 -2.636719 C 1.066406 -2.703125 1.085938 -2.796875 1.113281 -2.917969 C 1.140625 -3.042969 1.152344 -3.140625 1.152344 -3.21875 C 1.152344 -3.371094 1.125 -3.472656 1.074219 -3.523438 C 1.023438 -3.574219 0.917969 -3.601562 0.765625 -3.601562 C 0.707031 -3.601562 0.628906 -3.589844 0.535156 -3.570312 C 0.445312 -3.550781 0.371094 -3.53125 0.320312 -3.519531 L 0.382812 -3.78125 C 0.59375 -3.875 0.78125 -3.945312 0.945312 -3.992188 C 1.105469 -4.039062 1.246094 -4.0625 1.363281 -4.0625 C 1.578125 -4.0625 1.730469 -4.003906 1.824219 -3.886719 C 1.914062 -3.769531 1.964844 -3.609375 1.96875 -3.402344 L 1.992188 -3.402344 C 2.292969 -3.640625 2.550781 -3.816406 2.765625 -3.933594 C 2.984375 -4.046875 3.230469 -4.105469 3.507812 -4.105469 C 3.769531 -4.105469 3.972656 -4.03125 4.117188 -3.878906 C 4.265625 -3.730469 4.335938 -3.53125 4.335938 -3.289062 C 4.335938 -3.238281 4.328125 -3.152344 4.316406 -3.027344 C 4.300781 -2.902344 4.277344 -2.777344 4.242188 -2.65625 L 3.902344 -1.351562 C 3.878906 -1.265625 3.855469 -1.164062 3.832031 -1.050781 C 3.808594 -0.9375 3.796875 -0.851562 3.796875 -0.789062 C 3.796875 -0.632812 3.832031 -0.53125 3.898438 -0.472656 C 3.964844 -0.417969 4.078125 -0.390625 4.230469 -0.390625 C 4.28125 -0.390625 4.355469 -0.398438 4.453125 -0.417969 C 4.550781 -0.433594 4.625 -0.453125 4.675781 -0.472656 Z "/>
</g>
<g id="glyph-0-9">
<path d="M 2.867188 -0.558594 L 2.839844 -0.558594 C 2.78125 -0.507812 2.703125 -0.4375 2.609375 -0.355469 C 2.511719 -0.273438 2.414062 -0.199219 2.3125 -0.136719 C 2.179688 -0.0546875 2.0625 0.00390625 1.949219 0.046875 C 1.839844 0.0898438 1.707031 0.113281 1.546875 0.113281 C 1.152344 0.113281 0.84375 -0.0273438 0.621094 -0.3125 C 0.398438 -0.59375 0.285156 -0.980469 0.285156 -1.46875 C 0.285156 -1.8125 0.34375 -2.140625 0.464844 -2.457031 C 0.585938 -2.773438 0.75 -3.058594 0.960938 -3.304688 C 1.164062 -3.542969 1.410156 -3.734375 1.695312 -3.882812 C 1.980469 -4.03125 2.28125 -4.105469 2.59375 -4.105469 C 2.78125 -4.105469 2.964844 -4.082031 3.148438 -4.03125 C 3.332031 -3.984375 3.484375 -3.921875 3.605469 -3.851562 L 3.921875 -5.238281 C 3.9375 -5.308594 3.949219 -5.367188 3.957031 -5.40625 C 3.964844 -5.449219 3.96875 -5.492188 3.96875 -5.542969 C 3.96875 -5.640625 3.949219 -5.714844 3.90625 -5.765625 C 3.867188 -5.816406 3.8125 -5.855469 3.742188 -5.878906 C 3.679688 -5.902344 3.589844 -5.921875 3.476562 -5.929688 C 3.363281 -5.9375 3.257812 -5.945312 3.164062 -5.957031 L 3.222656 -6.203125 L 4.871094 -6.296875 L 4.910156 -6.238281 L 3.785156 -1.359375 C 3.761719 -1.269531 3.738281 -1.167969 3.71875 -1.050781 C 3.695312 -0.9375 3.683594 -0.847656 3.683594 -0.789062 C 3.683594 -0.632812 3.714844 -0.53125 3.78125 -0.472656 C 3.84375 -0.417969 3.953125 -0.390625 4.109375 -0.390625 C 4.160156 -0.390625 4.234375 -0.398438 4.328125 -0.414062 C 4.421875 -0.429688 4.496094 -0.449219 4.550781 -0.46875 L 4.488281 -0.207031 C 4.261719 -0.105469 4.070312 -0.03125 3.921875 0.0078125 C 3.773438 0.046875 3.636719 0.0703125 3.507812 0.0703125 C 3.3125 0.0703125 3.15625 0.0195312 3.042969 -0.0820312 C 2.925781 -0.183594 2.867188 -0.34375 2.867188 -0.558594 Z M 3.441406 -3.148438 C 3.4375 -3.226562 3.417969 -3.304688 3.382812 -3.378906 C 3.347656 -3.453125 3.300781 -3.519531 3.246094 -3.582031 C 3.183594 -3.648438 3.105469 -3.703125 3.003906 -3.75 C 2.90625 -3.792969 2.789062 -3.816406 2.652344 -3.816406 C 2.445312 -3.816406 2.246094 -3.75 2.0625 -3.621094 C 1.875 -3.492188 1.710938 -3.316406 1.570312 -3.101562 C 1.433594 -2.890625 1.328125 -2.640625 1.246094 -2.34375 C 1.164062 -2.050781 1.121094 -1.757812 1.121094 -1.460938 C 1.121094 -1.296875 1.132812 -1.148438 1.152344 -1.019531 C 1.171875 -0.894531 1.207031 -0.777344 1.261719 -0.667969 C 1.3125 -0.566406 1.386719 -0.488281 1.480469 -0.429688 C 1.574219 -0.371094 1.703125 -0.339844 1.859375 -0.339844 C 2.007812 -0.339844 2.171875 -0.386719 2.34375 -0.476562 C 2.519531 -0.566406 2.714844 -0.722656 2.929688 -0.945312 Z "/>
</g>
<g id="glyph-0-10">
<path d="M 7.09375 -0.460938 L 7.03125 -0.199219 C 6.78125 -0.0976562 6.582031 -0.0273438 6.433594 0.0117188 C 6.285156 0.0507812 6.15625 0.0703125 6.050781 0.0703125 C 5.832031 0.0703125 5.671875 0.0117188 5.5625 -0.101562 C 5.453125 -0.210938 5.398438 -0.351562 5.398438 -0.515625 C 5.398438 -0.574219 5.40625 -0.640625 5.414062 -0.714844 C 5.425781 -0.785156 5.445312 -0.871094 5.46875 -0.96875 L 5.867188 -2.484375 C 5.898438 -2.601562 5.921875 -2.707031 5.9375 -2.804688 C 5.957031 -2.898438 5.964844 -2.972656 5.964844 -3.03125 C 5.964844 -3.214844 5.925781 -3.355469 5.847656 -3.460938 C 5.769531 -3.566406 5.644531 -3.621094 5.472656 -3.621094 C 5.289062 -3.621094 5.113281 -3.578125 4.9375 -3.492188 C 4.761719 -3.40625 4.566406 -3.25 4.34375 -3.015625 L 3.636719 0 L 2.878906 0 L 3.519531 -2.71875 C 3.53125 -2.777344 3.546875 -2.839844 3.558594 -2.90625 C 3.570312 -2.972656 3.578125 -3.023438 3.578125 -3.054688 C 3.578125 -3.230469 3.53125 -3.371094 3.445312 -3.472656 C 3.355469 -3.570312 3.226562 -3.621094 3.054688 -3.621094 C 2.902344 -3.621094 2.730469 -3.582031 2.542969 -3.503906 C 2.355469 -3.425781 2.140625 -3.253906 1.890625 -2.988281 L 1.203125 0 L 0.449219 0 L 1.054688 -2.636719 C 1.074219 -2.730469 1.097656 -2.832031 1.117188 -2.941406 C 1.136719 -3.050781 1.148438 -3.140625 1.148438 -3.21875 C 1.148438 -3.375 1.121094 -3.480469 1.070312 -3.53125 C 1.019531 -3.582031 0.917969 -3.605469 0.769531 -3.605469 C 0.710938 -3.605469 0.632812 -3.59375 0.539062 -3.574219 C 0.445312 -3.550781 0.371094 -3.53125 0.320312 -3.519531 L 0.382812 -3.78125 C 0.59375 -3.875 0.78125 -3.945312 0.945312 -3.992188 C 1.105469 -4.039062 1.246094 -4.0625 1.363281 -4.0625 C 1.582031 -4.0625 1.734375 -4 1.824219 -3.882812 C 1.914062 -3.765625 1.964844 -3.605469 1.96875 -3.402344 L 1.992188 -3.402344 C 2.3125 -3.652344 2.578125 -3.835938 2.78125 -3.941406 C 2.988281 -4.050781 3.234375 -4.105469 3.519531 -4.105469 C 3.761719 -4.105469 3.957031 -4.035156 4.109375 -3.894531 C 4.257812 -3.753906 4.34375 -3.582031 4.363281 -3.367188 L 4.378906 -3.367188 C 4.667969 -3.609375 4.925781 -3.792969 5.152344 -3.917969 C 5.378906 -4.042969 5.644531 -4.105469 5.945312 -4.105469 C 6.207031 -4.105469 6.40625 -4.03125 6.542969 -3.878906 C 6.683594 -3.730469 6.753906 -3.53125 6.753906 -3.289062 C 6.753906 -3.238281 6.746094 -3.152344 6.730469 -3.027344 C 6.714844 -2.902344 6.691406 -2.777344 6.660156 -2.65625 L 6.320312 -1.351562 C 6.296875 -1.265625 6.269531 -1.164062 6.25 -1.050781 C 6.226562 -0.9375 6.21875 -0.851562 6.21875 -0.789062 C 6.21875 -0.632812 6.25 -0.53125 6.316406 -0.472656 C 6.378906 -0.417969 6.488281 -0.390625 6.644531 -0.390625 C 6.695312 -0.390625 6.769531 -0.398438 6.867188 -0.410156 C 6.964844 -0.425781 7.039062 -0.441406 7.09375 -0.460938 Z "/>
</g>
<g id="glyph-0-11">
<path d="M 2.832031 -0.535156 L 2.804688 -0.535156 C 2.746094 -0.488281 2.671875 -0.425781 2.589844 -0.351562 C 2.507812 -0.277344 2.410156 -0.207031 2.300781 -0.136719 C 2.195312 -0.0703125 2.078125 -0.0117188 1.953125 0.0390625 C 1.828125 0.0898438 1.691406 0.113281 1.546875 0.113281 C 1.152344 0.113281 0.84375 -0.0273438 0.621094 -0.308594 C 0.398438 -0.589844 0.285156 -0.976562 0.285156 -1.464844 C 0.285156 -1.800781 0.347656 -2.128906 0.472656 -2.445312 C 0.597656 -2.761719 0.769531 -3.046875 0.988281 -3.300781 C 1.199219 -3.542969 1.445312 -3.734375 1.734375 -3.882812 C 2.019531 -4.03125 2.316406 -4.105469 2.621094 -4.105469 C 2.8125 -4.105469 2.996094 -4.078125 3.171875 -4.027344 C 3.347656 -3.976562 3.484375 -3.917969 3.585938 -3.851562 L 4.328125 -4.042969 L 4.378906 -3.984375 L 3.757812 -1.359375 C 3.738281 -1.273438 3.714844 -1.171875 3.691406 -1.050781 C 3.667969 -0.929688 3.65625 -0.84375 3.65625 -0.785156 C 3.65625 -0.628906 3.691406 -0.527344 3.753906 -0.472656 C 3.820312 -0.417969 3.929688 -0.390625 4.085938 -0.390625 C 4.136719 -0.390625 4.210938 -0.398438 4.304688 -0.414062 C 4.398438 -0.429688 4.472656 -0.449219 4.523438 -0.46875 L 4.464844 -0.207031 C 4.21875 -0.109375 4.039062 -0.0390625 3.917969 0.00390625 C 3.800781 0.046875 3.652344 0.0703125 3.484375 0.0703125 C 3.289062 0.0703125 3.132812 0.0117188 3.019531 -0.101562 C 2.90625 -0.214844 2.84375 -0.359375 2.832031 -0.535156 Z M 3.414062 -3.109375 C 3.414062 -3.199219 3.402344 -3.285156 3.386719 -3.363281 C 3.367188 -3.445312 3.328125 -3.523438 3.265625 -3.59375 C 3.210938 -3.660156 3.136719 -3.714844 3.042969 -3.753906 C 2.949219 -3.796875 2.828125 -3.816406 2.683594 -3.816406 C 2.488281 -3.816406 2.292969 -3.75 2.109375 -3.621094 C 1.921875 -3.492188 1.753906 -3.316406 1.601562 -3.097656 C 1.460938 -2.890625 1.347656 -2.640625 1.257812 -2.347656 C 1.167969 -2.054688 1.121094 -1.757812 1.121094 -1.457031 C 1.121094 -1.292969 1.132812 -1.144531 1.152344 -1.015625 C 1.171875 -0.890625 1.207031 -0.773438 1.261719 -0.667969 C 1.3125 -0.5625 1.386719 -0.484375 1.484375 -0.425781 C 1.582031 -0.371094 1.707031 -0.339844 1.855469 -0.339844 C 2.007812 -0.339844 2.167969 -0.382812 2.332031 -0.46875 C 2.5 -0.554688 2.6875 -0.707031 2.898438 -0.917969 Z "/>
</g>
<g id="glyph-0-12">
<path d="M 1.234375 0.0859375 C 0.976562 0.0859375 0.785156 0.0351562 0.667969 -0.0703125 C 0.546875 -0.175781 0.488281 -0.324219 0.488281 -0.519531 C 0.488281 -0.582031 0.492188 -0.640625 0.5 -0.699219 C 0.507812 -0.753906 0.519531 -0.816406 0.53125 -0.886719 L 1.164062 -3.605469 L 0.4375 -3.605469 L 0.523438 -3.976562 L 1.265625 -3.976562 L 1.550781 -5.167969 L 2.28125 -5.167969 L 2.007812 -3.976562 L 3.140625 -3.976562 L 3.054688 -3.605469 L 1.929688 -3.605469 L 1.40625 -1.363281 C 1.382812 -1.261719 1.363281 -1.160156 1.347656 -1.0625 C 1.332031 -0.96875 1.324219 -0.886719 1.324219 -0.816406 C 1.324219 -0.667969 1.359375 -0.558594 1.433594 -0.492188 C 1.507812 -0.421875 1.644531 -0.386719 1.839844 -0.386719 C 1.910156 -0.386719 2.007812 -0.394531 2.136719 -0.414062 C 2.265625 -0.429688 2.363281 -0.453125 2.433594 -0.480469 L 2.363281 -0.183594 C 2.175781 -0.109375 1.996094 -0.046875 1.828125 0.0078125 C 1.660156 0.0585938 1.460938 0.0859375 1.234375 0.0859375 Z "/>
</g>
<g id="glyph-0-13">
<path d="M 1.472656 0.117188 C 1.070312 0.117188 0.738281 0.046875 0.46875 -0.09375 C 0.203125 -0.238281 0.0703125 -0.425781 0.0703125 -0.65625 C 0.0703125 -0.765625 0.109375 -0.867188 0.1875 -0.960938 C 0.265625 -1.054688 0.363281 -1.101562 0.476562 -1.101562 C 0.585938 -1.101562 0.671875 -1.078125 0.738281 -1.027344 C 0.804688 -0.976562 0.855469 -0.917969 0.894531 -0.851562 C 0.9375 -0.78125 0.972656 -0.695312 1.003906 -0.597656 C 1.035156 -0.5 1.0625 -0.421875 1.082031 -0.359375 C 1.121094 -0.3125 1.179688 -0.269531 1.25 -0.230469 C 1.324219 -0.191406 1.425781 -0.171875 1.5625 -0.171875 C 1.855469 -0.171875 2.078125 -0.242188 2.226562 -0.390625 C 2.378906 -0.535156 2.453125 -0.734375 2.453125 -0.984375 C 2.453125 -1.167969 2.382812 -1.316406 2.242188 -1.425781 C 2.101562 -1.535156 1.890625 -1.636719 1.609375 -1.730469 C 1.511719 -1.761719 1.394531 -1.8125 1.257812 -1.878906 C 1.121094 -1.945312 1.011719 -2.015625 0.933594 -2.089844 C 0.835938 -2.175781 0.753906 -2.28125 0.695312 -2.402344 C 0.636719 -2.519531 0.605469 -2.660156 0.605469 -2.824219 C 0.605469 -3.171875 0.761719 -3.472656 1.070312 -3.726562 C 1.382812 -3.980469 1.765625 -4.105469 2.21875 -4.105469 C 2.324219 -4.105469 2.4375 -4.101562 2.558594 -4.089844 C 2.679688 -4.078125 2.816406 -4.046875 2.960938 -4 C 3.089844 -3.957031 3.199219 -3.890625 3.289062 -3.804688 C 3.378906 -3.71875 3.421875 -3.609375 3.421875 -3.476562 C 3.421875 -3.363281 3.382812 -3.261719 3.308594 -3.171875 C 3.234375 -3.082031 3.136719 -3.035156 3.015625 -3.035156 C 2.914062 -3.035156 2.832031 -3.058594 2.765625 -3.101562 C 2.703125 -3.144531 2.648438 -3.203125 2.605469 -3.277344 C 2.5625 -3.347656 2.527344 -3.425781 2.5 -3.511719 C 2.472656 -3.59375 2.441406 -3.679688 2.410156 -3.757812 C 2.359375 -3.78125 2.3125 -3.796875 2.269531 -3.804688 C 2.230469 -3.8125 2.175781 -3.816406 2.109375 -3.816406 C 1.84375 -3.816406 1.640625 -3.746094 1.503906 -3.601562 C 1.367188 -3.460938 1.296875 -3.292969 1.296875 -3.097656 C 1.296875 -2.90625 1.359375 -2.761719 1.484375 -2.667969 C 1.605469 -2.570312 1.8125 -2.472656 2.09375 -2.367188 C 2.464844 -2.234375 2.730469 -2.082031 2.898438 -1.914062 C 3.066406 -1.742188 3.148438 -1.53125 3.148438 -1.277344 C 3.148438 -0.863281 2.992188 -0.53125 2.671875 -0.269531 C 2.355469 -0.0117188 1.957031 0.117188 1.472656 0.117188 Z "/>
</g>
<g id="glyph-0-14">
<path d="M 1.628906 -0.46875 C 1.628906 -0.316406 1.574219 -0.1875 1.460938 -0.078125 C 1.351562 0.0273438 1.222656 0.0820312 1.070312 0.0820312 C 0.917969 0.0820312 0.789062 0.0273438 0.675781 -0.078125 C 0.566406 -0.1875 0.511719 -0.316406 0.511719 -0.46875 C 0.511719 -0.621094 0.566406 -0.75 0.675781 -0.859375 C 0.785156 -0.96875 0.917969 -1.023438 1.070312 -1.023438 C 1.222656 -1.023438 1.351562 -0.96875 1.460938 -0.859375 C 1.570312 -0.75 1.628906 -0.621094 1.628906 -0.46875 Z "/>
</g>
</g>
<image id="source-534" x="0" y="0" width="0" height="0"/>
<mask id="mask-0">
<use xlink:href="#source-534"/>
</mask>
</defs>
<g fill="rgb(83.137255%, 65.882353%, 18.823529%)" fill-opacity="1">
<use xlink:href="#glyph-0-0" x="30" y="27.641602"/>
<use xlink:href="#glyph-0-1" x="35" y="27.641602"/>
<use xlink:href="#glyph-0-2" x="39" y="27.641602"/>
<use xlink:href="#glyph-0-3" x="43" y="27.641602"/>
<use xlink:href="#glyph-0-4" x="47" y="27.641602"/>
<use xlink:href="#glyph-0-5" x="52" y="27.641602"/>
<use xlink:href="#glyph-0-6" x="54" y="27.641602"/>
<use xlink:href="#glyph-0-7" x="59" y="27.641602"/>
<use xlink:href="#glyph-0-8" x="63" y="27.641602"/>
<use xlink:href="#glyph-0-9" x="68" y="27.641602"/>
<use xlink:href="#glyph-0-5" x="73" y="27.641602"/>
<use xlink:href="#glyph-0-10" x="75" y="27.641602"/>
<use xlink:href="#glyph-0-11" x="82" y="27.641602"/>
<use xlink:href="#glyph-0-12" x="87" y="27.641602"/>
<use xlink:href="#glyph-0-12" x="90" y="27.641602"/>
<use xlink:href="#glyph-0-2" x="93" y="27.641602"/>
<use xlink:href="#glyph-0-3" x="97" y="27.641602"/>
<use xlink:href="#glyph-0-13" x="101" y="27.641602"/>
<use xlink:href="#glyph-0-14" x="105" y="27.641602"/>
</g>
</svg>
